<svg t="1574931947051" class="icon" viewBox="0 0 1024 1024" version="1.1" xmlns="http://www.w3.org/2000/svg" p-id="17561" width="200" height="200"><path d="M513.376 96c-229.76 0-416 186.24-416 416s186.24 416 416 416c173.888 0 319.136-106.752 381.312-258.24L548 512l337.056-185.888C816.768 189.792 676.224 96 513.376 96z m0 64c113.088 0 216.64 53.312 282.368 142.304l-114.624 63.2A222.944 222.944 0 0 0 512 288a224 224 0 1 0 0 448 222.944 222.944 0 0 0 178.176-88.992l117.12 53.312C743.936 801.408 634.048 864 513.408 864c-194.08 0-352-157.92-352-352s157.888-352 352-352zM768 416v160h64v-64h16a48 48 0 0 0 0-96H768z" p-id="17562"></path></svg>