<?xml version="1.0" standalone="no"?>
<!DOCTYPE svg PUBLIC "-//W3C//DTD SVG 1.1//EN" "http://www.w3.org/Graphics/SVG/1.1/DTD/svg11.dtd" >
<!--
2013-9-30: Created.
-->
<svg>
<metadata>
Created by iconfont
</metadata>
<defs>

<font id="iconfont" horiz-adv-x="1024" >
  <font-face
    font-family="iconfont"
    font-weight="500"
    font-stretch="normal"
    units-per-em="1024"
    ascent="896"
    descent="-128"
  />
    <missing-glyph />
    
    <glyph glyph-name="remove" unicode="&#58973;" d="M504.364889 879.554758c-277.865486 0-503.111837-225.245343-503.111837-503.111837S226.499403-126.66589399999998 504.364889-126.66589399999998c277.865486 0 503.109823 225.24333 503.109823 503.108816S782.230375 879.554758 504.364889 879.554758zM755.674123 360.230267c0-18.816426-15.281298-34.097724-34.122895-34.097724L286.660011 326.13254300000006c-18.841598 0-34.097724 15.281298-34.097724 34.097724l0 7.27163c0 18.81844 15.256126 34.097724 34.097724 34.097724l434.891217 0c18.841598 0 34.122895-15.279284 34.122895-34.097724L755.674123 360.230267z"  horiz-adv-x="1024" />

    
    <glyph glyph-name="icon-angle-double-top" unicode="&#58901;" d="M307.2 391.314286L512 596.114286 716.8 384c14.628571-14.628571 36.571429-21.942857 51.2-7.314286 14.628571 14.628571 14.628571 36.571429 0 51.2L533.942857 661.942857c-14.628571 14.628571-36.571429 14.628571-51.2 7.314286L256 442.514286c-14.628571-14.628571-14.628571-36.571429 0-51.2 14.628571-14.628571 36.571429-14.628571 51.2 0z m226.742857 80.457143c-14.628571 14.628571-36.571429 14.628571-51.2 0L256 245.02857100000006c-14.628571-14.628571-14.628571-36.571429 0-51.2 14.628571-14.628571 36.571429-14.628571 51.2 0L512 398.628571l204.8-219.428571c14.628571-7.314286 36.571429-7.314286 51.2 7.314286s14.628571 36.571429 0 51.2L533.942857 471.771429z"  horiz-adv-x="1024" />

    
    <glyph glyph-name="icon-angle-double-bottom" unicode="&#58902;" d="M482.742857 296.228571c14.628571-14.628571 36.571429-14.628571 51.2 0L768 530.285714c14.628571 14.628571 14.628571 36.571429 0 51.2s-36.571429 14.628571-51.2 7.314286L512 369.37142900000003 307.2 574.171429c-14.628571 14.628571-36.571429 14.628571-51.2 0-14.628571-14.628571-14.628571-36.571429 0-51.2l226.742857-226.742858zM716.8 384L512 171.885714 307.2 376.68571399999996c-14.628571 14.628571-36.571429 14.628571-51.2 0-14.628571-14.628571-14.628571-36.571429 0-51.2l226.742857-226.742857c14.628571-7.314286 36.571429-7.314286 51.2 7.314286l234.057143 234.057143c14.628571 14.628571 14.628571 36.571429 0 51.2-14.628571 14.628571-36.571429 7.314286-51.2-7.314286z"  horiz-adv-x="1024" />

    
    <glyph glyph-name="shiliguanli" unicode="&#58884;" d="M940.992-21.056c0-15.744-15.744-31.552-31.552-31.552H99.84c-15.744 0-31.488 15.808-31.488 31.552V530.944h872.64v-552zM94.72 620.288L178.752 783.36c10.496 20.992 42.048 36.8 63.04 36.8h525.76c20.992 0 52.544-21.12 63.04-36.8l84.16-163.008c5.248-5.248 5.248-15.744 10.496-26.24H78.848c5.248 5.248 10.496 20.992 15.808 26.24z m147.2 252.352c-42.112 0-94.72-31.552-110.4-68.352L47.296 646.592C31.552 615.04 15.744 557.184 15.744 520.32v-541.44c0-47.36 36.8-84.096 84.16-84.096h809.6c47.296 0 84.096 36.8 84.096 84.096V515.136c0 36.8-15.808 94.656-31.552 126.208l-84.096 162.944C856.896 841.088 809.6 872.64 767.552 872.64H241.792zM599.232 173.44h-394.24c-15.808 0-31.552-15.744-31.552-42.048 0-21.056 15.744-42.048 31.488-42.048h399.552c15.808 0 31.552 15.744 31.552 42.048-5.248 26.24-15.744 42.048-36.8 42.048m157.696 178.752H204.992c-15.744 0-31.488-15.744-31.488-42.048 0-21.056 15.744-42.048 31.488-42.048h557.248c15.808 0 31.552 15.744 31.552 42.048-5.248 26.24-15.744 42.048-36.8 42.048"  horiz-adv-x="1024" />

    
    <glyph glyph-name="liuchengguanli" unicode="&#58885;" d="M684.67264 828.992V586.24H339.32864V828.992h345.344zM711.42464 896H312.57664a40.128 40.128 0 0 1-40.192-40.192v-296.32c0-22.272 17.92-40.256 40.192-40.256h398.848c22.272 0 40.192 17.92 40.192 40.256V855.808A40.128 40.128 0 0 1 711.42464 896zM207.48864 143.808v-140.8H66.94464v140.8h140.544z m26.752 67.072H40.12864a40.128 40.128 0 0 1-40.128-40.256v-194.432c0-22.208 17.92-40.192 40.128-40.192H234.24064c22.208 0 40.192 17.92 40.192 40.192v194.432a40.128 40.128 0 0 1-40.192 40.256z m347.392-67.072v-140.8H441.08864v140.8h140.544z m26.752 67.072H414.27264a40.128 40.128 0 0 1-40.128-40.256v-194.432c0-22.208 17.92-40.192 40.128-40.192h194.112c22.208 0 40.128 17.92 40.128 40.192v194.432a40.128 40.128 0 0 1-40.128 40.256z m348.672-67.072v-140.8h-140.544v140.8h140.544z m26.816 67.072H789.76064a40.128 40.128 0 0 1-40.192-40.256v-194.432c0-22.208 17.92-40.192 40.192-40.192h194.112c22.208 0 40.128 17.92 40.128 40.192v194.432a40.128 40.128 0 0 1-40.128 40.256z m-68.992 174.976H109.12064c-19.84 0-35.968 15.04-35.968 33.536 0 18.56 16.128 33.536 35.968 33.536h805.76c19.84 0 35.968-15.04 35.968-33.536 0-18.496-16.128-33.536-35.968-33.536zM97.66464 166.4c-18.56 0-33.664 16-33.664 35.84V418.56c0 19.84 15.104 35.84 33.664 35.84 18.56 0 33.664-16 33.664-35.84v-216.32c0-19.84-15.104-35.84-33.664-35.84z m828.672-0.064c-18.56 0-33.664 16-33.664 35.84v216.32c0 19.776 15.104 35.84 33.664 35.84 18.56 0 33.664-16.064 33.664-35.84v-216.32c0-19.84-15.104-35.84-33.664-35.84zM508.35264 192c-18.56 0-33.664 13.44-33.664 29.888V546.112c0 16.512 15.04 29.888 33.664 29.888 18.56 0 33.664-13.44 33.664-29.888v-324.224c0-16.512-15.104-29.888-33.664-29.888z"  horiz-adv-x="1024" />

    
    <glyph glyph-name="jichuguanli" unicode="&#58886;" d="M528 764.992c16.448 0 28.672-2.816 34.304-5.312l330.624-144.768L562.304 470.4a93.568 93.568 0 0 0-34.24-5.312c-16.448 0-28.672 2.816-34.24 5.312l-330.752 144.64 330.752 144.64c5.568 2.56 17.792 5.376 34.24 5.376zM528 832c-24.768 0-49.6-4.096-68.48-12.352L60.288 644.928c-37.76-16.448-37.76-43.392 0-59.904l399.168-174.72c18.944-8.192 43.776-12.288 68.608-12.288 24.768 0 49.6 4.096 68.48 12.288l399.168 174.72c37.76 16.512 37.76 43.456 0 59.968l-399.168 174.72C577.664 827.84 552.832 832 528 832zM528 150.016c-30.464 0-60.928 6.656-85.312 19.84L53.12 381.376c-18.88 10.24-26.496 35.2-17.088 55.68 9.472 20.48 32.384 28.8 51.2 18.56l389.568-211.648c26.88-14.592 75.52-14.592 102.4 0l389.568 211.648c18.88 10.24 41.792 1.92 51.2-18.56 9.408-20.48 1.792-45.44-17.088-55.68l-389.568-211.52a182.08 182.08 0 0 0-85.312-19.84zM528-97.984c-30.528 0-60.928 6.592-85.312 19.84L53.184 133.44c-18.944 10.24-26.56 35.072-17.152 55.552 9.472 20.48 32.32 28.672 51.2 18.56l389.568-211.648c26.88-14.592 75.52-14.592 102.4 0l389.568 211.648c18.88 10.24 41.792 1.92 51.2-18.56 9.408-20.48 1.792-45.44-17.088-55.68l-389.568-211.584c-24.32-13.248-54.784-19.84-85.312-19.84z"  horiz-adv-x="1024" />

    
    <glyph glyph-name="baobiaoguanli" unicode="&#58887;" d="M155.968 837.696C102.016 837.632 58.24 793.92 58.24 739.968v-712c0-53.888 43.712-97.6 97.664-97.664h712.064c53.952 0.064 97.6 43.776 97.664 97.664V740.032c0 53.952-43.712 97.664-97.664 97.728H155.968v-0.064zM156.16-128A156.352 156.352 0 0 0 0 28.16V739.84A156.352 156.352 0 0 0 156.16 896h711.68A156.352 156.352 0 0 0 1024 739.84v-711.68A156.352 156.352 0 0 0 867.84-128H156.16z m574.336 719.488H619.968a38.4 38.4 0 0 0-38.336 38.464 38.4 38.4 0 0 0 38.4 38.528h199.872a38.4 38.4 0 0 0 38.336-38.528v-193.792a38.4 38.4 0 0 0-38.4-38.464 38.4 38.4 0 0 0-38.272 38.464V533.952l-243.2-216.704a38.208 38.208 0 0 0-45.76-3.84l-137.28 86.4L224.64 313.856a38.208 38.208 0 0 0-52.544 11.392 38.592 38.592 0 0 0 10.496 52.992l151.296 99.584a38.208 38.208 0 0 0 41.344 0.384l133.76-84.224 221.568 197.568z m-434.816-487.04a38.4 38.4 0 0 0-38.336 38.4 38.4 38.4 0 0 0 38.4 38.528h434.816a38.4 38.4 0 0 0 38.336-38.464 38.4 38.4 0 0 0-38.336-38.528H295.744z"  horiz-adv-x="1024" />

    
    <glyph glyph-name="neibuguanlix" unicode="&#58889;" d="M947.392 806.592C858.432 895.488 687.552 876.16 508.8 771.072 330.048 876.16 159.168 895.488 70.208 806.592-18.688 717.632 0.64 546.752 105.728 368c-105.088-178.752-124.416-349.632-35.52-438.592 38.272-38.208 91.712-56.64 154.368-56.64 82.88 0 182.4 32.256 284.224 92.16 102.272-59.904 201.344-92.16 284.224-92.16 62.72 0 116.096 18.432 154.368 56.64 88.896 88.96 69.568 259.84-35.52 438.592 105.088 178.752 124.416 349.632 35.52 438.592z m-276.864-35.968c45.12 15.68 86.592 23.488 122.496 23.488 45.184 0 81.536-11.968 105.536-36.352 43.264-43.328 47.872-126.72 12.864-228.032-10.56-31.36-24.832-63.168-41.92-95.36a1238.4 1238.4 0 0 1-134.528 159.808 1168.512 1168.512 0 0 1-159.808 134.528c31.744 17.088 64 31.36 95.36 41.92z m159.808-402.624a1100.672 1100.672 0 0 0-144.64-177.344 1085.568 1085.568 0 0 0-177.344-144.64 1100.672 1100.672 0 0 0-177.344 144.64 1085.568 1085.568 0 0 0-144.64 177.344 1100.672 1100.672 0 0 0 144.64 177.344 1085.568 1085.568 0 0 0 177.28 144.64 1100.672 1100.672 0 0 0 177.408-144.64 1100.672 1100.672 0 0 0 144.64-177.344zM106.24 529.728c-35.008 101.312-30.4 184.704 12.864 228.032 24 23.936 60.352 36.352 105.536 36.352 35.904 0 77.376-7.808 122.496-23.488 31.36-10.56 63.168-24.832 95.36-41.92a1238.4 1238.4 0 0 1-159.808-134.528 1168.512 1168.512 0 0 1-134.528-159.808c-17.088 31.744-31.36 64-41.92 95.36z m240.896-564.352c-101.76-35.008-184.704-30.4-228.032 12.864-43.264 43.328-47.872 126.72-12.864 228.032 10.56 31.36 24.832 63.168 41.92 95.36a1238.4 1238.4 0 0 1 134.528-159.808 1168.512 1168.512 0 0 1 159.808-134.528c-31.744-17.088-64-31.36-95.36-41.92z m564.352 240.896c35.008-101.76 30.4-184.704-12.864-228.032-43.328-43.264-126.72-47.872-228.032-12.864-31.36 10.56-63.168 24.832-95.36 41.92a1238.4 1238.4 0 0 1 159.808 134.528 1168.512 1168.512 0 0 1 134.528 159.808c17.088-31.744 31.36-64 41.92-95.36zM430.464 368a78.336 78.336 0 1 1 156.672 0 78.336 78.336 0 0 1-156.672 0z"  horiz-adv-x="1024" />

    
    <glyph glyph-name="waibuguanli" unicode="&#58890;" d="M753.873658 299.241948l-1.406242 6.072409c63.408739 33.238452 103.998002 97.478152 103.998002 168.365543 0 105.020724-87.890137 190.865418-195.595505 190.865418S465.338327 578.700624 465.338327 473.6799c0-71.015231 40.781024-135.702372 102.59176-174.437952-147.655431-2.684644-266.227216-120.617228-266.227216-264.820974l-3.196005-100.418477H146.377029c-8.309613 0-14.829463 6.39201-14.829463 14.637703V816.099875c0 8.181773 6.58377 14.637703 14.829463 14.637703h514.556804c8.309613 0 14.829463-6.45593 14.829463-14.637703v-45.638951c0-16.938826 14.445943-31.065169 31.89613-31.065169s31.89613 14.062422 31.89613 31.065169V816.099875c0 42.059426-35.539576 76.70412-78.621723 76.70412H146.377029c-43.146067 0-78.621723-34.644694-78.621723-76.70412v-867.459675c0-42.059426 35.475655-76.70412 78.621723-76.70412h795.166042c43.146067 0 78.621723 34.644694 78.621723 76.70412V34.357054c0 144.075905-118.507865 261.688889-266.291136 264.820973zM660.933833 602.414981c72.868914 0 131.803246-57.52809 131.803246-128.735081 0-71.206991-58.934332-128.735081-131.803246-128.735081-72.868914 0-131.803246 57.52809-131.803246 128.735081 0 71.143071 58.998252 128.735081 131.803246 128.735081z m292.817977-656.459425l2.684644 2.684644a14.637703 14.637703 0 0 0-14.829463-14.637703L365.367291-62.801498v97.222472c0 111.988015 93.323346 203.201998 208.059925 203.201997h175.396754c114.608739 0 208.059925-91.086142 208.059925-203.201997l-3.196005-88.529339zM195.148065 587.841199c0 22.372035 19.879151 40.589263 43.721348 40.589263h199.238952c23.842197 0 43.785268-18.217228 43.785268-40.589263 0-22.372035-19.943071-40.653184-43.785268-40.653184H238.869413c-23.842197 0-43.721348 18.217228-43.721348 40.653184z"  horiz-adv-x="1024" />

    
    <glyph glyph-name="gangwei" unicode="&#58894;" d="M837.2224-106.9056H166.2976c-58.368 0-105.984 44.4416-105.984 98.6112V567.3984c0 27.9552 22.9376 49.3568 52.9408 49.3568h176.64c30.0032 0 52.9408 21.4016 52.9408 49.3568V830.464c0 27.9552 24.7808 49.3568 52.9408 49.3568h441.4464c58.368 0 105.984-44.4416 105.984-98.7136v-789.504c0-54.272-47.7184-98.6112-105.984-98.6112z m-114.688 624.9472h-282.624c-14.0288 0-26.4192-11.4688-26.4192-24.6784 0-13.1072 12.288-24.576 26.5216-24.576h282.4192c14.1312 0 26.624 11.4688 26.624 24.576 0 13.2096-12.4928 24.6784-26.624 24.6784z m0-164.4544H280.9856c-14.1312 0-26.624-11.4688-26.624-24.6784 0-13.1072 12.4928-24.576 26.624-24.576h441.344c14.1312 0 26.624 11.4688 26.624 24.576 0 13.2096-12.4928 24.6784-26.624 24.6784z m0-164.4544H280.9856c-14.1312 0-26.624-11.5712-26.624-24.6784 0-13.2096 12.4928-24.576 26.624-24.576h441.344c14.1312 0 26.624 11.3664 26.624 24.576 0 13.1072-12.4928 24.6784-26.624 24.6784z m-487.424 475.2384H99.1232c-19.456 0-24.6784 11.5712-12.288 24.6784L263.3728 858.5216c14.1312 13.1072 24.7808 8.192 24.7808-9.9328V713.728c0-27.9552-23.04-49.3568-53.0432-49.3568z"  horiz-adv-x="1024" />

    
    <glyph glyph-name="bumen" unicode="&#58895;" d="M114.688 461.2096h326.144V769.2288c0 60.416-48.3328 114.688-114.688 114.688H114.688C48.3328 883.9168 0 829.6448 0 769.2288v-199.2704c0-60.416 48.3328-108.7488 114.688-108.7488z m851.456 108.7488V769.2288c0 60.416-48.2304 114.688-114.688 114.688H640.1024c-60.416 0-114.688-48.3328-114.688-114.688v-314.0608h326.0416c66.4576 6.0416 114.688 54.272 114.688 114.688zM646.144-58.1632h217.3952c60.416 0 108.6464 48.3328 108.6464 114.688V256c0 60.416-48.2304 114.688-114.688 114.688H531.456v-313.9584c0-60.416 48.2304-114.688 114.688-114.688z m-531.456 0h211.3536c60.416 0 114.688 48.3328 114.688 114.688V364.544H114.688C54.272 364.544 0 316.416 0 249.856v-199.2704c0-54.272 48.3328-108.7488 114.688-108.7488z"  horiz-adv-x="1024" />

    
    <glyph glyph-name="gongsi" unicode="&#58896;" d="M512 896a512 512 0 1 0-0.093091-1024.093091A512 512 0 0 0 512 896z m236.078545-760.925091V665.6l-83.874909 73.076364-279.272727-104.261819v-26.065454l253.579636 85.364364v-596.89891h168.773819v38.167273h-59.205819zM294.167273 298.356364l132.933818 26.624v67.490909l-132.933818-35.002182v-59.112727z m0-202.565819h132.933818v70.749091l-132.933818-9.588363v-61.160728z m0 101.655273l132.933818 12.846546v67.304727l-132.933818-22.341818v-57.809455z m0 203.869091l132.933818 36.584727v70.097455L294.167273 463.127273v-61.719273z m280.389818 174.173091l-75.124364 45.614545L216.901818 519.354182 216.715636 94.487273h37.236364V498.781091l211.409455 69.632v-471.784727h109.195636V575.581091z"  horiz-adv-x="1024" />

    
    <glyph glyph-name="celanshouqi" unicode="&#58897;" d="M142.859375 805.875h878.90625027a52.734375 52.734375 0 1 0 0-105.46875H142.859375a52.734375 52.734375 0 0 0 0 105.46875z m0-369.140625h527.34375a52.734375 52.734375 0 0 0 0-105.46875H142.859375a52.734375 52.734375 0 0 0 0 105.46875z m738.98437473 115.94531277l173.95312527-152.0859375a21.9375 21.9375 0 0 0 0-33.1171875l-174.0234375-151.6640625A10.96875 10.96875 0 0 0 863.56250027 224.109375V544.3125a10.96875 10.96875 0 0 0 18.28124946 8.29687473zM142.859375 67.59375h878.90625027a52.734375 52.734375 0 1 0 0-105.46875H142.859375a52.734375 52.734375 0 1 0 0 105.46875z"  horiz-adv-x="1194" />

    
    <glyph glyph-name="celanzhankai" unicode="&#58898;" d="M1021.76562527 805.875H142.859375a52.734375 52.734375 0 1 1 0-105.46875h878.90625027a52.734375 52.734375 0 0 1 0 105.46875z m0-369.140625h-527.34375a52.734375 52.734375 0 0 1 0-105.46875h527.34375a52.734375 52.734375 0 0 1 0 105.46875zM282.78124973 552.67968777L108.8984375 400.59375027a21.9375 21.9375 0 0 1 0-33.1171875l174.0234375-151.6640625A10.96875 10.96875 0 0 1 301.0625 224.109375V544.3125a10.96875 10.96875 0 0 1-18.28125027 8.29687473zM1021.76562527 67.59375H142.859375a52.734375 52.734375 0 1 1 0-105.46875h878.90625027a52.734375 52.734375 0 1 1 0 105.46875z"  horiz-adv-x="1194" />

    
    <glyph glyph-name="bianji" unicode="&#58899;" d="M424.8125 305.475a33.91875 33.91875 0 0 0 0 48.825L846.96875 779.2125a39.0375 39.0375 0 0 1 8.8875 2.41875 40.725 40.725 0 0 0 13.3875 3.15c3.6 0 2.1375 0.5625 11.64375-3.2625a26.4375 26.4375 0 0 1 10.575-2.25l7.03125-7.0875c0-1.18125 0.675-3.54375 2.41875-8.8875a40.725 40.725 0 0 0 3.15-13.3875c0-3.375-0.73125-6.1875-3.15-13.33125l-4.44375-13.8375L474.3125 297.82500000000005c-0.7875 0-0.28125 0.225-6.46875-2.25a39.9375 39.9375 0 0 0-15.75-3.2625c-11.64375 0-17.71875 3.6-27.28125 13.1625z m444.4875 245.64375c21.9375 0 35.8875-16.2 29.25-34.875v-444.99375c0-42.8625-36.5625-79.36875-79.3125-79.36875H190.5875c-43.7625 0-79.36875 37.4625-79.36875 84.9375V705.35625c0 42.8625 36.5625 79.36875 79.3125 79.36875h422.83125c20.5875 0 34.875-14.2875 34.875-34.875 0-20.53125-14.2875-34.81875-34.875-34.81875H218.375c-23.90625 0-37.4625-13.5-37.4625-37.4625v-578.5875c0-20.53125 15.525-37.4625 37.4625-37.4625h578.5875c21.9375 0 37.4625 16.93125 37.4625 37.4625V516.3c0 20.53125 14.2875 34.875 34.875 34.875z"  horiz-adv-x="1024" />

    
    <glyph glyph-name="chakan" unicode="&#58900;" d="M429.283556 839.111111c50.403556 0 98.645333-9.841778 144.611555-29.582222a375.011556 375.011556 0 0 0 118.784-79.36 373.873778 373.873778 0 0 0 79.36-118.784c19.683556-45.966222 29.582222-94.208 29.582222-144.611556a368.298667 368.298667 0 0 0-81.464889-232.391111l235.008-234.723555c7.964444-7.964444 11.946667-17.749333 11.946667-29.411556a40.106667 40.106667 0 0 0-41.358222-41.358222 39.992889 39.992889 0 0 0-29.411556 11.946667l-234.723555 234.951111a367.160889 367.160889 0 0 0-232.391111-81.408 363.292444 363.292444 0 0 0-144.611556 29.582222 375.011556 375.011556 0 0 0-118.784 79.36 373.873778 373.873778 0 0 0-79.36 118.784A364.202667 364.202667 0 0 0 56.888889 466.716444c0 50.403556 9.841778 98.645333 29.582222 144.668445a375.239111 375.239111 0 0 0 79.36 118.784A374.101333 374.101333 0 0 0 284.615111 809.528889 363.633778 363.633778 0 0 0 429.226667 839.111111z m0-82.773333c-39.253333 0-76.743111-7.623111-112.526223-22.926222-35.726222-15.36-66.56-35.896889-92.444444-61.781334a291.157333 291.157333 0 0 1-61.724445-92.444444 282.965333 282.965333 0 0 1-22.983111-112.469334c0-39.253333 7.68-76.743111 22.983111-112.526222 15.303111-35.726222 35.84-66.56 61.724445-92.444444 25.884444-25.827556 56.718222-46.421333 92.444444-61.724445 35.84-15.36 73.272889-22.983111 112.526223-22.983111s76.686222 7.68 112.469333 22.983111 66.56 35.84 92.444444 61.724445a291.157333 291.157333 0 0 1 61.781334 92.444444c15.303111 35.84 22.926222 73.272889 22.926222 112.526222s-7.623111 76.686222-22.926222 112.469334a291.157333 291.157333 0 0 1-61.781334 92.444444 291.157333 291.157333 0 0 1-92.444444 61.781334 282.965333 282.965333 0 0 1-112.469333 22.926222z"  horiz-adv-x="1024" />

    
    <glyph glyph-name="xitongshezhi" unicode="&#58904;" d="M511.808 169.152c-123.712 0-224.96 98.112-224.96 218.048s101.248 218.048 224.96 218.048S736.64 507.136 736.64 387.2s-101.184-218.048-224.896-218.048z m0 363.392c-82.496 0-149.952-65.408-149.952-145.344 0-80 67.456-145.344 149.952-145.344 82.432 0 149.952 65.408 149.952 145.344 0 80-67.52 145.344-149.952 145.344zM599.872-121.6H425.6c-54.336 0-99.328 43.584-99.328 96.32a23.616 23.616 0 0 1-14.976 21.76c-14.976 7.296-30.016 16.384-44.992 25.472a27.392 27.392 0 0 1-26.24 1.792 100.928 100.928 0 0 0-136.832 36.352L13.184 205.504A93.824 93.824 0 0 0 3.84 280c7.488 25.408 24.32 45.44 46.848 58.112a30.784 30.784 0 0 1 13.12 23.68v50.88a26.24 26.24 0 0 1-13.12 23.616 96.192 96.192 0 0 0-37.504 132.608l88.128 147.2c28.096 47.232 88.064 61.76 136.832 36.352a27.136 27.136 0 0 1 26.24 1.792c14.976 9.088 29.952 18.176 44.992 25.472a23.616 23.616 0 0 1 14.976 21.76C324.352 852.48 369.28 896 423.68 896h174.336c56.256 0 101.248-43.584 101.248-96.32 0-9.088 5.568-18.176 14.976-21.76 14.976-7.296 29.952-16.384 44.992-25.472a30.848 30.848 0 0 1 28.16-1.792 98.56 98.56 0 0 0 74.88 9.088c26.24-7.296 46.912-23.68 60.032-45.44l88.064-147.2c28.16-47.232 11.264-105.408-37.44-132.672a30.784 30.784 0 0 1-13.12-23.616v-50.88a26.24 26.24 0 0 1 13.12-23.616c22.464-12.736 39.36-34.56 46.848-58.176 7.488-23.616 3.712-50.88-9.408-74.496l-88.064-143.552c-28.16-45.44-88.128-61.76-136.832-36.352-7.488 5.504-18.752 3.648-28.16-1.792-14.976-9.088-29.952-18.176-44.928-25.408a23.616 23.616 0 0 1-15.04-21.824c1.92-52.736-43.072-96.32-97.472-96.32z m-350.528 221.696c18.752 0 39.36-5.44 56.32-16.384 11.2-7.232 24.32-14.528 37.44-19.968 33.728-16.32 56.192-50.88 56.192-87.232 0-12.736 11.264-23.616 24.384-23.616h174.336c13.12 0 24.32 10.88 24.32 23.68 0 36.288 20.672 70.848 56.32 87.168 13.056 5.44 24.32 12.736 37.44 19.968 31.872 20.032 73.088 21.824 104.96 3.648 11.264-7.232 28.16-1.792 33.728 9.088l88.128 147.2a20.928 20.928 0 0 1 1.92 18.176 28.352 28.352 0 0 1-11.264 14.528 96 96 0 0 0-50.624 90.88v39.936a96 96 0 0 0 50.56 90.88c11.264 7.296 16.896 21.76 9.408 32.704l-84.352 147.2a29.12 29.12 0 0 1-14.976 10.88c-5.632 1.856-13.12 0-18.752-1.792a103.424 103.424 0 0 0-104.96 3.648 242.496 242.496 0 0 1-37.504 19.968c-33.728 16.32-56.256 50.88-56.256 87.232-1.856 14.528-13.12 25.408-26.24 25.408H425.6c-14.976 0-26.24-10.88-26.24-23.616 0-36.352-20.608-70.848-56.192-87.232-13.12-5.44-24.32-12.672-37.504-19.968a106.88 106.88 0 0 0-106.88-3.648c-11.2 7.296-28.096 1.856-33.728-9.088l-86.208-147.2c-7.488-10.88-1.92-27.2 9.408-32.64a96 96 0 0 0 50.56-90.88v-40a96 96 0 0 0-50.56-90.88 28.352 28.352 0 0 1-11.264-14.528c-1.92-5.44 0-12.672 1.92-18.176l88.064-147.2c7.488-10.88 22.464-16.32 33.728-9.024 14.976 7.232 31.872 10.88 48.704 10.88z"  horiz-adv-x="1024" />

    
    <glyph glyph-name="jiesuo" unicode="&#58905;" d="M748.885333 571.733333v-0.4096h-68.266666 68.266666c76.458667 0 138.581333-58.299733 138.581334-130.116266v-390.485334c0-71.816533-62.122667-130.116267-138.581334-130.116266H275.114667C198.656-79.394133 136.533333-21.0944 136.533333 50.858667V441.207467C136.533333 513.024 198.656 571.323733 275.114667 571.323733h-6.075734V670.5152C269.038933 794.760533 378.2656 896 512.341333 896 624.503467 896 729.224533 830.190933 748.202667 674.133333H686.08C684.100267 761.309867 606.958933 831.556267 512.341333 831.556267 416.5632 831.556267 338.602667 759.261867 338.602667 670.5152v-99.191467h347.613866V571.733333h62.6688zM546.679467 252.586667c40.209067 13.5168 69.290667 48.674133 69.290666 90.999466 0 53.930667-46.557867 97.621333-103.970133 97.621334a36.181333 36.181333 0 0 1-13.448533-2.525867c-50.7904-6.5536-90.5216-45.602133-90.5216-95.095467 0-42.325333 29.0816-77.482667 69.290666-90.999466v-104.2432c0-17.954133 15.5648-32.494933 34.679467-32.494934s34.679467 14.5408 34.679467 32.494934V252.586667z"  horiz-adv-x="1024" />

    
    <glyph glyph-name="jinhangzhong" unicode="&#58906;" d="M512 896a512 512 0 1 1 0-1024 512 512 0 0 1 0 1024z m306.018462-622.198154H437.326769v10.318769h-3.780923V664.812308h64.669539v-326.262154h319.803077V273.723077z"  horiz-adv-x="1024" />

    
    <glyph glyph-name="suoding" unicode="&#58907;" d="M748.885333 571.323733h-68.266666 68.266666C770.048 801.792 646.485333 896 512.273067 896 378.197333 896 269.038933 794.8288 269.038933 670.5152v-99.191467h6.144C198.656 571.323733 136.533333 513.024 136.533333 441.207467v-390.485334c0-71.816533 62.122667-130.116267 138.581334-130.116266h473.770666c76.458667 0 138.581333 58.299733 138.581334 130.184533V441.207467c0 71.816533-62.122667 130.116267-138.581334 130.116266z m-202.205866-318.805333v-104.174933c0-17.954133-15.5648-32.494933-34.679467-32.494934s-34.679467 14.5408-34.679467 32.494934V252.586667c-40.209067 13.5168-69.290667 48.674133-69.290666 90.999466 0 49.493333 39.7312 88.541867 90.5216 95.095467a36.181333 36.181333 0 0 0 13.448533 2.525867c57.344 0 103.970133-43.690667 103.970133-97.621334 0-42.325333-29.0816-77.482667-69.290666-90.999466z m139.4688 318.805333H338.602667V670.5152c0 88.746667 77.960533 161.109333 173.738666 161.109333 95.8464 0 173.8752-72.2944 173.8752-161.109333v-99.191467H686.08z"  horiz-adv-x="1024" />

    
    <glyph glyph-name="wancheng" unicode="&#58908;" d="M512.157538 889.856A504.910769 504.910769 0 0 1 7.876923 385.575385a504.910769 504.910769 0 0 1 504.359385-504.359385 504.910769 504.910769 0 0 1 504.359384 504.359385A504.910769 504.910769 0 0 1 512.157538 889.856z m282.230154-407.630769L466.392615 145.959385a42.062769 42.062769 0 0 0-29.774769-12.603077H436.381538a42.062769 42.062769 0 0 0-29.696 12.288l-176.443076 176.285538a41.984 41.984 0 1 0 59.470769 59.470769L436.066462 235.126154l298.220307 305.860923a42.062769 42.062769 0 0 0 60.100923-58.761846z"  horiz-adv-x="1024" />

    
    <glyph glyph-name="rukujinkou-danzhengtongguo" unicode="&#58909;" d="M170.666667 853.333333v-938.666666h759.466666V640l-211.456 197.802667zM933.802667 515.669333h-102.4V692.565333l-118.954667 99.584H187.733333v-816.341333h697.728V-128H85.333333V896h657.962667l190.506667-147.669333v-232.661334z m0-468.138666V-128h-102.4v175.530667h102.4zM475.861333 208.725333L424.106667 148.906667l136.192-121.045334a38.698667 38.698667 0 0 1 56.192 4.949334l217.088 273.621333-61.141334 49.877333-191.317333-241.194666-105.258667 93.610666zM281.301333 578.901333h371.2V631.722667h-371.2v-52.821334zM281.301333 408.234667h371.2v52.821333h-371.2v-52.821333z"  horiz-adv-x="1024" />

    
    <glyph glyph-name="rukujinkou-shenbaozhong" unicode="&#58910;" d="M742.23616 254.3616l-186.20416 107.7248V655.85152a44.89216 44.89216 0 0 1-89.78432 0v-314.368c0-16.62976 20.6848-30.63808 34.16064-38.33856 3.72736-5.61152 13.9264-10.69056 20.19328-14.29504l185.22112-112.2304c21.42208-12.41088 44.68736-5.03808 57.09824 16.384 12.36992 21.504 0.8192 48.9472-20.6848 61.35808z m98.54976-199.31136a465.67424 465.67424 0 0 0-331.40736-137.33888 465.55136 465.55136 0 0 0-331.28448 137.216A465.7152 465.7152 0 0 0 40.96 386.4576c0 125.21472 48.7424 242.8928 137.216 331.40736A465.34656 465.34656 0 0 0 509.46048 855.04c125.17376 0 242.81088-48.7424 331.32544-137.216 182.6816-182.76352 182.6816-480.09216 0-662.7328z"  horiz-adv-x="1024" />

    
    <glyph glyph-name="rukuchukou-shenbaowanbi" unicode="&#58911;" d="M860.928 34.901333a479.36 479.36 0 1 1-677.76 0c187.221333-187.093333 490.581333-187.093333 677.76 0z m-103.808 526.933334a41.642667 41.642667 0 1 0 58.197333-58.154667l-322.688-322.645333c-18.56-17.493333-47.530667-17.493333-66.133333 0L242.688 363.52a41.642667 41.642667 0 1 0 58.197333 58.197333l154.709334-158.037333 301.525333 298.197333z"  horiz-adv-x="1024" />

    
    <glyph glyph-name="rukuchukou-shendantongguo" unicode="&#58912;" d="M170.666667 853.333333v-938.666666h759.466666V640l-211.456 197.802667zM933.802667 515.669333h-102.4V692.565333l-118.954667 99.584H187.733333v-816.341333h697.728V-128H85.333333V896h657.962667l190.506667-147.669333v-232.661334z m0-468.138666V-128h-102.4v175.530667h102.4zM475.861333 208.725333L424.106667 148.906667l136.192-121.045334a38.698667 38.698667 0 0 1 56.192 4.949334l217.088 273.621333-61.141334 49.877333-191.317333-241.194666-105.258667 93.610666zM281.301333 578.901333h371.2V631.722667h-371.2v-52.821334zM281.301333 408.234667h371.2v52.821333h-371.2v-52.821333z"  horiz-adv-x="1024" />

    
    <glyph glyph-name="rukujinkou-weituozhong" unicode="&#58913;" d="M1013.71904-71.72096c44.35968-34.48832 59.14624 0 59.14624 0l182.39488 202.1376c9.8304 0 24.65792 24.61696 9.8304 44.35968-19.6608 19.70176-246.45632 211.968-261.24288 226.75456-19.70176 19.70176-34.48832 19.70176-34.48832 19.70176h-389.44768s-69.0176-9.8304-69.0176-69.0176c0-44.35968 24.65792-78.848 69.0176-88.71936 44.35968-9.8304 123.24864-24.65792 192.26624-34.48832 24.61696 0 0-19.74272 0-19.74272l-88.76032-59.14624h-246.45632s-123.24864 88.71936-207.0528 157.73696c-128.16384 93.67552-182.39488 0-182.39488 0s-14.7456-34.48832 0-54.23104c69.0176-59.14624 320.43008-236.58496 335.21664-256.32768 14.78656-19.70176 44.35968-9.8304 44.35968-9.8304h409.1904c59.10528 0 118.29248-19.74272 162.6112-54.23104l14.82752-4.9152zM185.5488 529.69472h571.8016c29.61408 0 59.1872 24.65792 59.1872 59.14624 0 29.57312-24.65792 59.14624-59.14624 59.14624H185.5488c-29.61408 0-59.1872-24.61696-59.1872-59.14624 4.9152-29.57312 29.57312-59.14624 59.14624-59.14624z m0 207.0528h571.8016c29.61408 0 59.1872 24.61696 59.1872 59.14624 0 29.57312-24.65792 59.14624-59.14624 59.14624H185.5488a64.14336 64.14336 0 0 1-54.272-64.1024c0-29.57312 24.65792-54.19008 54.23104-54.19008z"  horiz-adv-x="1310" />

    
    <glyph glyph-name="rukuchukou-yuluru" unicode="&#58914;" d="M811.25376 537.47712s32.9728 30.22848 34.93888 32.19456c1.96608 1.96608 44.8512 39.56736 99.81952-4.9152 13.18912-11.4688 67.91168-64.59392 41.53344-112.96768-6.84032-10.15808-13.18912-15.44192-44.4416-46.40768l-131.85024 132.096z m-53.6576-52.71552l131.72736-132.13696-297.61536-299.49952-26.78784-23.7568s-9.87136-10.89536-38.0928-21.58592c-28.2624-10.93632-69.2224-26.2144-117.63712-37.0688-13.84448-1.96608-38.62528-6.30784-35.47136 25.1904 2.8672 31.66208 23.3472 86.016 34.52928 121.07776 14.37696 33.09568 25.1904 43.008 45.50656 64.22528s303.84128 303.5136 303.84128 303.5136zM211.7632 279.01952h311.5008c87.6544 87.57248 212.5824 212.04992 220.3648 219.83232l13.9264 13.96736 25.06752 25.35424 15.1552 13.9264c12.288 11.22304 32.48128 29.81888 34.4064 31.82592 0.16384 0.12288 7.70048 7.49568 21.13536 13.84448V823.5008c0 37.84704-31.00672 68.73088-68.68992 68.73088H86.91712C49.07008 892.23168 18.18624 861.184 18.18624 823.5008v-879.0016c0-37.84704 31.00672-68.73088 68.73088-68.73088h697.71264c37.84704 0 68.68992 31.00672 68.68992 68.73088v344.064l-236.3392-238.05952h42.5984a22.69184 22.69184 0 1 0 0-45.34272h-93.5936a170.27072 170.27072 0 0 0-32.07168-15.9744c-33.09568-12.77952-73.44128-27.4432-120.38144-37.84704l-0.8192-0.12288-1.80224-0.28672c-4.5056-0.65536-9.91232-1.4336-15.9744-1.4336-13.312 0-23.87968 4.096-31.25248 12.288-7.90528 8.68352-11.0592 20.80768-9.6256 35.96288 0.28672 2.37568 0.53248 4.75136 0.94208 7.24992H211.7632a22.69184 22.69184 0 1 0 0 45.38368h154.0096c4.9152 16.22016 10.4448 32.9728 15.85152 48.78336 2.8672 8.6016 5.5296 16.46592 7.90528 23.7568l0.28672 0.90112 0.4096 0.94208c14.62272 33.87392 26.74688 46.40768 44.93312 65.536 1.47456 1.4336 2.78528 2.8672 4.34176 4.5056 4.096 4.17792 18.35008 18.55488 38.5024 38.74816h-266.24a22.69184 22.69184 0 0 0-22.65088 22.65088c0 12.53376 10.24 22.81472 22.65088 22.81472zM189.11232 713.3184c0 12.53376 10.15808 22.69184 22.65088 22.69184h447.85664a22.69184 22.69184 0 1 0 0-45.38368H211.7632a22.77376 22.77376 0 0 0-22.65088 22.69184z m22.65088-205.70112h447.85664a22.69184 22.69184 0 1 0 0-45.38368H211.7632a22.69184 22.69184 0 1 0 0 45.38368z"  horiz-adv-x="1024" />

    
    <glyph glyph-name="rukuchukou-shenbaozhong" unicode="&#58915;" d="M742.23616 254.3616l-186.20416 107.7248V655.85152a44.89216 44.89216 0 0 1-89.78432 0v-314.368c0-16.62976 20.6848-30.63808 34.16064-38.33856 3.72736-5.61152 13.9264-10.69056 20.19328-14.29504l185.22112-112.2304c21.42208-12.41088 44.68736-5.03808 57.09824 16.384 12.36992 21.504 0.8192 48.9472-20.6848 61.35808z m98.54976-199.31136a465.67424 465.67424 0 0 0-331.40736-137.33888 465.55136 465.55136 0 0 0-331.28448 137.216A465.7152 465.7152 0 0 0 40.96 386.4576c0 125.21472 48.7424 242.8928 137.216 331.40736A465.34656 465.34656 0 0 0 509.46048 855.04c125.17376 0 242.81088-48.7424 331.32544-137.216 182.6816-182.76352 182.6816-480.09216 0-662.7328z"  horiz-adv-x="1024" />

    
    <glyph glyph-name="rukujinkou-shenbaowanbi" unicode="&#58916;" d="M860.928 34.901333a479.36 479.36 0 1 1-677.76 0c187.221333-187.093333 490.581333-187.093333 677.76 0z m-103.808 526.933334a41.642667 41.642667 0 1 0 58.197333-58.154667l-322.688-322.645333c-18.56-17.493333-47.530667-17.493333-66.133333 0L242.688 363.52a41.642667 41.642667 0 1 0 58.197333 58.197333l154.709334-158.037333 301.525333 298.197333z"  horiz-adv-x="1024" />

    
    <glyph glyph-name="rukuchukou-weituozhong" unicode="&#58917;" d="M1013.71904-71.72096c44.35968-34.48832 59.14624 0 59.14624 0l182.39488 202.1376c9.8304 0 24.65792 24.61696 9.8304 44.35968-19.6608 19.70176-246.45632 211.968-261.24288 226.75456-19.70176 19.70176-34.48832 19.70176-34.48832 19.70176h-389.44768s-69.0176-9.8304-69.0176-69.0176c0-44.35968 24.65792-78.848 69.0176-88.71936 44.35968-9.8304 123.24864-24.65792 192.26624-34.48832 24.61696 0 0-19.74272 0-19.74272l-88.76032-59.14624h-246.45632s-123.24864 88.71936-207.0528 157.73696c-128.16384 93.67552-182.39488 0-182.39488 0s-14.7456-34.48832 0-54.23104c69.0176-59.14624 320.43008-236.58496 335.21664-256.32768 14.78656-19.70176 44.35968-9.8304 44.35968-9.8304h409.1904c59.10528 0 118.29248-19.74272 162.6112-54.23104l14.82752-4.9152zM185.5488 529.69472h571.8016c29.61408 0 59.1872 24.65792 59.1872 59.14624 0 29.57312-24.65792 59.14624-59.14624 59.14624H185.5488c-29.61408 0-59.1872-24.61696-59.1872-59.14624 4.9152-29.57312 29.57312-59.14624 59.14624-59.14624z m0 207.0528h571.8016c29.61408 0 59.1872 24.61696 59.1872 59.14624 0 29.57312-24.65792 59.14624-59.14624 59.14624H185.5488a64.14336 64.14336 0 0 1-54.272-64.1024c0-29.57312 24.65792-54.19008 54.23104-54.19008z"  horiz-adv-x="1310" />

    
    <glyph glyph-name="rukujinkou-danzhengxiaodui" unicode="&#58918;" d="M605.44256 161.578667l165.845333-165.845334c23.68-23.722667 23.68-60.586667 0-81.621333-23.68-23.68-60.544-23.68-81.578666 0l-165.845334 165.845333c-15.786667 15.786667-21.077333 42.112-13.184 63.146667-55.253333-47.36-123.733333-76.288-200.064-76.288-171.093333 0-310.613333 139.52-310.613333 310.613333a306.688 306.688 0 0 0 308.010667 307.968c171.093333 0 310.613333-139.52 310.613333-310.613333 0-76.373333-28.970667-147.413333-76.373333-200.064 21.077333 7.893333 44.8 2.645333 63.189333-13.141333zM326.40256 896h658.133333c21.034667 0 39.466667-18.432 39.466667-39.466667a40.490667 40.490667 0 0 0-39.466667-39.509333H326.40256a40.490667 40.490667 0 0 0-39.466667 39.509333c0 21.034667 18.432 39.466667 39.466667 39.466667z m315.904-210.602667h342.186667c21.077333 0 39.509333-18.432 39.509333-39.466666a40.490667 40.490667 0 0 0-39.466667-39.509334h-342.229333a40.490667 40.490667 0 0 0-39.466667 39.509334c0 21.034667 18.389333 39.466667 39.466667 39.466666z m105.301333-210.56h236.928c21.034667 0 39.466667-18.432 39.466667-39.509333a40.490667 40.490667 0 0 0-39.466667-39.466667h-236.928a40.490667 40.490667 0 0 0-39.509333 39.466667c0 21.077333 18.432 39.509333 39.509333 39.509333z m0-210.602666h236.928c21.034667 0 39.466667-18.432 39.466667-39.509334a40.490667 40.490667 0 0 0-39.466667-39.466666h-236.928a40.490667 40.490667 0 0 0-39.509333 39.466666c0 21.077333 18.432 39.509333 39.509333 39.509334z"  horiz-adv-x="1024" />

    
    <glyph glyph-name="chukujinkou-chudan" unicode="&#58919;" d="M763.690667 869.248v-168.917333h177.92L763.733333 869.290667zM174.933333 750.634667H90.496v-856.618667h685.781333v83.072H174.933333V750.634667zM704.341333 869.248H315.008a85.333333 85.333333 0 0 1-85.333333-85.333333v-759.893334H856.32a85.333333 85.333333 0 0 1 85.333333 85.333334V643.754667h-237.226666L704.298667 869.248z m-71.381333-645.418667V323.413333H378.581333v113.664h254.378667V536.661333l216.106667-156.416-216.106667-156.416z"  horiz-adv-x="1024" />

    
    <glyph glyph-name="chukuchukou-chudan" unicode="&#58920;" d="M763.690667 869.248v-168.917333h177.92L763.733333 869.290667zM174.933333 750.634667H90.496v-856.618667h685.781333v83.072H174.933333V750.634667zM704.341333 869.248H315.008a85.333333 85.333333 0 0 1-85.333333-85.333333v-759.893334H856.32a85.333333 85.333333 0 0 1 85.333333 85.333334V643.754667h-237.226666L704.298667 869.248z m-71.381333-645.418667V323.413333H378.581333v113.664h254.378667V536.661333l216.106667-156.416-216.106667-156.416z"  horiz-adv-x="1024" />

    
    <glyph glyph-name="chukuchukou-weituozhong" unicode="&#58921;" d="M1013.71904-71.72096c44.35968-34.48832 59.14624 0 59.14624 0l182.39488 202.1376c9.8304 0 24.65792 24.61696 9.8304 44.35968-19.6608 19.70176-246.45632 211.968-261.24288 226.75456-19.70176 19.70176-34.48832 19.70176-34.48832 19.70176h-389.44768s-69.0176-9.8304-69.0176-69.0176c0-44.35968 24.65792-78.848 69.0176-88.71936 44.35968-9.8304 123.24864-24.65792 192.26624-34.48832 24.61696 0 0-19.74272 0-19.74272l-88.76032-59.14624h-246.45632s-123.24864 88.71936-207.0528 157.73696c-128.16384 93.67552-182.39488 0-182.39488 0s-14.7456-34.48832 0-54.23104c69.0176-59.14624 320.43008-236.58496 335.21664-256.32768 14.78656-19.70176 44.35968-9.8304 44.35968-9.8304h409.1904c59.10528 0 118.29248-19.74272 162.6112-54.23104l14.82752-4.9152zM185.5488 529.69472h571.8016c29.61408 0 59.1872 24.65792 59.1872 59.14624 0 29.57312-24.65792 59.14624-59.14624 59.14624H185.5488c-29.61408 0-59.1872-24.61696-59.1872-59.14624 4.9152-29.57312 29.57312-59.14624 59.14624-59.14624z m0 207.0528h571.8016c29.61408 0 59.1872 24.61696 59.1872 59.14624 0 29.57312-24.65792 59.14624-59.14624 59.14624H185.5488a64.14336 64.14336 0 0 1-54.272-64.1024c0-29.57312 24.65792-54.19008 54.23104-54.19008z"  horiz-adv-x="1310" />

    
    <glyph glyph-name="chukujinkou-weituozhong" unicode="&#58922;" d="M1013.71904-71.72096c44.35968-34.48832 59.14624 0 59.14624 0l182.39488 202.1376c9.8304 0 24.65792 24.61696 9.8304 44.35968-19.6608 19.70176-246.45632 211.968-261.24288 226.75456-19.70176 19.70176-34.48832 19.70176-34.48832 19.70176h-389.44768s-69.0176-9.8304-69.0176-69.0176c0-44.35968 24.65792-78.848 69.0176-88.71936 44.35968-9.8304 123.24864-24.65792 192.26624-34.48832 24.61696 0 0-19.74272 0-19.74272l-88.76032-59.14624h-246.45632s-123.24864 88.71936-207.0528 157.73696c-128.16384 93.67552-182.39488 0-182.39488 0s-14.7456-34.48832 0-54.23104c69.0176-59.14624 320.43008-236.58496 335.21664-256.32768 14.78656-19.70176 44.35968-9.8304 44.35968-9.8304h409.1904c59.10528 0 118.29248-19.74272 162.6112-54.23104l14.82752-4.9152zM185.5488 529.69472h571.8016c29.61408 0 59.1872 24.65792 59.1872 59.14624 0 29.57312-24.65792 59.14624-59.14624 59.14624H185.5488c-29.61408 0-59.1872-24.61696-59.1872-59.14624 4.9152-29.57312 29.57312-59.14624 59.14624-59.14624z m0 207.0528h571.8016c29.61408 0 59.1872 24.61696 59.1872 59.14624 0 29.57312-24.65792 59.14624-59.14624 59.14624H185.5488a64.14336 64.14336 0 0 1-54.272-64.1024c0-29.57312 24.65792-54.19008 54.23104-54.19008z"  horiz-adv-x="1310" />

    
    <glyph glyph-name="chukujinkou-didanzhong" unicode="&#58923;" d="M777.770667 298.666667c-124.202667 0-224.853333-95.530667-224.853334-213.333334s100.650667-213.333333 224.853334-213.333333C901.930667-128 1002.666667-32.469333 1002.666667 85.333333s-100.693333 213.333333-224.896 213.333334z m90.88-234.069334h-70.442667v-110.378666c0-7.594667-9.173333-13.781333-20.48-13.781334-11.264 0-20.437333 6.186667-20.437333 13.781334v110.378666h-70.229334c-8.448 0-14.72 3.968-9.813333 7.893334 4.010667 3.157333 83.797333 107.050667 90.666667 112.384 4.48 3.541333 15.146667 3.456 19.626666 0 5.077333-3.84 85.290667-107.989333 90.88-112.554667 4.053333-3.370667-0.426667-7.68-9.728-7.68zM759.466667 341.333333c-86.101333 0-160.426667-51.797333-200.789334-128H137.856c-21.461333 0-38.826667-19.114667-38.826667-42.666666 0-23.594667 17.365333-42.666667 38.826667-42.666667h392.405333c-2.133333-13.952-3.925333-28.074667-3.925333-42.666667 0-62.72 21.461333-123.349333 60.501333-170.666666H99.029333C56.106667-85.333333 21.333333-47.146667 21.333333 0V810.666667C21.333333 857.813333 56.106667 896 98.986667 896h621.568c42.922667 0 77.653333-38.186667 77.653333-85.333333v-473.642667a210.176 210.176 0 0 1-38.784 4.266667zM137.813333 298.666667h310.784c21.461333 0 38.826667 19.072 38.826667 42.666666 0 23.552-17.365333 42.666667-38.826667 42.666667H137.856c-21.461333 0-38.826667-19.114667-38.826667-42.666667 0-23.594667 17.365333-42.666667 38.826667-42.666666zM332.117333 725.333333H137.813333c-21.461333 0-38.826667-19.114667-38.826666-42.666666s17.365333-42.666667 38.826666-42.666667h194.261334c21.461333 0 38.826667 19.072 38.826666 42.666667 0 23.552-17.365333 42.666667-38.826666 42.666666z m194.218667-170.666666H137.856c-21.461333 0-38.826667-19.114667-38.826667-42.666667 0-23.594667 17.365333-42.666667 38.826667-42.666667h388.48c21.461333 0 38.826667 19.072 38.826667 42.666667 0 23.552-17.365333 42.666667-38.826667 42.666667z"  horiz-adv-x="1024" />

    
    <glyph glyph-name="chukuchukou-haiguanfanghang" unicode="&#58924;" d="M513.706667 874.666667C242.901333 874.666667 23.04 654.762667 23.04 384s219.904-490.666667 490.666667-490.666667c270.72 0 490.666667 219.904 490.666666 490.666667S784.384 874.666667 513.706667 874.666667z m268.074666-509.952s-13.141333 35.925333-13.141333 84.992c0 0-2.602667 8.789333-5.248 0.853333 0 0-1.749333-45.525333 0-49.066667 0 0-12.245333 0-15.786667 53.461334 0 0-0.853333 8.789333-2.602666 0 0 0 0-46.421333-7.893334-18.346667 0 0-6.997333 25.386667-7.893333 41.130667 0 0-4.394667-2.602667-6.997333-14.890667 0 0-7.893333-0.853333-10.538667 32.426667 0 0-2.602667 7.893333-5.248 0 0 0-3.498667-12.245333-1.706667-18.389334 0 0-11.434667 1.706667-10.538666 35.925334 0 0-7.04-3.498667-5.290667-15.786667 0 0 0-7.893333-5.248 0 0 0-14.890667 13.141333-30.634667 7.893333 0 0-4.394667 0.853333-15.786666-11.392l-38.570667-40.32s12.288-24.533333 38.570667-13.994666c0 0 6.144 0.853333 13.141333 6.997333 0 0 0.853333 17.493333 11.392 20.138667 0 0 13.994667 2.645333 25.386667-10.496 0 0 12.288-15.786667-0.853334-29.781334 0 0-14.933333-41.173333-91.136-14.933333 0 0 9.642667-36.778667-37.674666-49.92l-3.498667-3.498667 67.456-56.96s13.141333-12.245333 28.928-0.853333c0 0 45.568 28.885333 84.992 3.498667 0 0 58.709333-38.570667 34.133333-117.418667 0 0-29.738667-96.384-122.624-80.64 0 0-80.64 34.218667-61.354666 106.026667l7.04 21.930666s8.746667 13.141333-8.789334 24.533334l-67.456 60.458666s-13.141333-35.925333-68.352-36.821333c0 0 4.394667-67.413333-70.101333-56.064l-106.026667-120.917333-4.352 3.498666 95.488 131.413334s-17.493333 70.997333 50.816 70.101333l4.394667 4.394667s-16.64 46.464 30.677333 65.706666L238.506667 561.92s-12.245333 9.642667 0.853333 29.781333c0 0 17.536 9.642667 32.426667-4.394666l210.304-168.234667 5.248 5.290667s3.498667 42.026667 49.92 46.421333c0 0 3.541333 14.037333-6.954667 31.573333 0 0-14.08 24.490667 0 44.672 0 0 11.349333 18.346667 35.882667 8.746667 0 0 23.68-10.496 11.392-25.429333 0 0-9.6-8.746667-14.890667-9.6 0 0-3.498667-37.674667 20.181333-35.072l40.277334 44.672s11.392 13.184-5.248 26.325333c0 0-14.890667 7.850667 3.498666 13.141333 0 0 7.04-0.896 7.893334 5.248 0 0 1.749333 3.498667-13.141334 3.498667 0 0-23.637333-2.645333-21.888 6.144l20.992 3.498667s7.893333 3.498667-2.602666 3.498666l-23.68 0.853334s-12.245333-0.853333-17.493334 7.04l26.282667 0.853333s6.997333 0 5.248 6.144c0 0 0 2.645333-8.746667 2.645333l-54.357333 1.706667s-3.498667 5.290667 11.392 6.186667l27.178667 0.853333s6.997333 0.853333-0.853334 5.248c0 0 1.706667 0.853333-10.538666 2.645333l-50.816 3.498667s-12.288 6.997333-0.853334 8.746667l55.168 1.749333s6.997333 4.394667 0 7.893333h-93.738666s-5.248-1.706667-10.538667 7.04c0 0-1.706667 5.248 7.893333 6.997334l125.312 2.602666s41.173333-0.853333 48.213334-40.277333c0 0 2.56-12.288 1.706666-29.781333 0 0 4.394667-12.288 13.141334-9.642667 0 0 8.789333-3.498667 19.285333 10.496 0 0 2.645333 8.746667 3.498667 14.933333 0 0 0.853333 18.346667 28.032 16.64 0 0 19.285333-7.893333 28.074666-25.429333 0 0 9.642667-10.538667-3.541333-21.930667 0 0-7.850667-11.349333-23.637333-11.349333 0 0-16.64-4.394667-15.786667-20.181333 0 0 0.853333-23.637333 27.178667-20.138667 0 0 19.285333 13.141333 34.133333 5.248 0 0 23.68-9.642667 23.68-50.816l10.538667-128.810667s-6.144-6.997333-12.288 11.392z"  horiz-adv-x="1024" />

    
    <glyph glyph-name="chukuchukou-didanzhong" unicode="&#58925;" d="M778.624 298.666667c-124.16 0-224.853333-95.530667-224.853333-213.333334s100.693333-213.333333 224.853333-213.333333c124.16 0 224.896 95.530667 224.896 213.333333s-100.693333 213.333333-224.896 213.333334z m90.88-234.069334h-70.4v-110.378666c0-7.594667-9.216-13.781333-20.48-13.781334-11.306667 0-20.48 6.186667-20.48 13.781334v110.378666h-70.229333c-8.405333 0-14.72 3.968-9.770667 7.893334 3.968 3.157333 83.754667 107.050667 90.624 112.384 4.48 3.541333 15.146667 3.456 19.669333 0 5.034667-3.84 85.248-107.989333 90.837334-112.554667 4.096-3.370667-0.426667-7.68-9.728-7.68zM760.32 341.333333c-86.058667 0-160.426667-51.797333-200.789333-128H138.709333c-21.418667 0-38.826667-19.114667-38.826666-42.666666 0-23.594667 17.408-42.666667 38.826666-42.666667h392.405334c-2.133333-13.952-3.882667-28.074667-3.882667-42.666667 0-62.72 21.461333-123.349333 60.458667-170.666666H99.882667C56.96-85.333333 22.229333-47.146667 22.229333 0V810.666667c0 47.146667 34.773333 85.333333 77.653334 85.333333h621.525333c42.922667 0 77.653333-38.186667 77.653333-85.333333v-473.642667a210.176 210.176 0 0 1-38.741333 4.266667zM138.709333 298.666667h310.826667c21.418667 0 38.826667 19.072 38.826667 42.666666 0 23.552-17.408 42.666667-38.826667 42.666667H138.709333c-21.418667 0-38.826667-19.114667-38.826666-42.666667 0-23.594667 17.365333-42.666667 38.826666-42.666666zM332.970667 725.333333H138.709333c-21.418667 0-38.826667-19.114667-38.826666-42.666666s17.365333-42.666667 38.826666-42.666667h194.261334c21.461333 0 38.826667 19.072 38.826666 42.666667 0 23.552-17.365333 42.666667-38.826666 42.666666z m194.261333-170.666666H138.709333c-21.418667 0-38.826667-19.114667-38.826666-42.666667 0-23.594667 17.408-42.666667 38.826666-42.666667h388.522667c21.418667 0 38.826667 19.072 38.826667 42.666667 0 23.552-17.365333 42.666667-38.826667 42.666667z"  horiz-adv-x="1024" />

    
    <glyph glyph-name="chukujinkou-haiguan" unicode="&#58926;" d="M512 874.666667C241.237333 874.666667 21.333333 654.762667 21.333333 384S241.237333-106.666667 512-106.666667 1002.666667 113.237333 1002.666667 384 782.762667 874.666667 512 874.666667z m268.117333-509.952s-13.141333 35.925333-13.141333 84.992c0 0-2.645333 8.789333-5.248 0.853333 0 0-1.749333-45.525333 0-49.066667 0 0-12.288 0-15.786667 53.461334 0 0-0.853333 8.789333-2.645333 0 0 0 0-46.421333-7.850667-18.346667 0 0-7.04 25.386667-7.893333 41.130667 0 0-4.394667-2.602667-7.04-14.890667 0 0-7.850667-0.853333-10.496 32.426667 0 0-2.645333 7.893333-5.248 0 0 0-3.498667-12.245333-1.749333-18.389334 0 0-11.392 1.706667-10.538667 35.925334 0 0-6.997333-3.498667-5.248-15.786667 0 0 0-7.893333-5.248 0 0 0-14.933333 13.141333-30.677333 7.893333 0 0-4.394667 0.853333-15.786667-11.392l-38.528-40.32s12.245333-24.533333 38.570667-13.994666c0 0 6.101333 0.853333 13.141333 6.997333 0 0 0.853333 17.493333 11.392 20.138667 0 0 13.994667 2.645333 25.386667-10.496 0 0 12.288-15.786667-0.853334-29.781334 0 0-14.933333-41.173333-91.136-14.933333 0 0 9.642667-36.778667-37.674666-49.92l-3.498667-3.498667 67.413333-56.96s13.184-12.245333 28.970667-0.853333c0 0 45.525333 28.885333 84.992 3.498667 0 0 58.666667-38.570667 34.133333-117.418667 0 0-29.781333-96.384-122.666666-80.64 0 0-80.597333 34.218667-61.312 106.026667l6.997333 21.930666s8.789333 13.141333-8.746667 24.533334l-67.456 60.458666s-13.141333-35.925333-68.352-36.821333c0 0 4.352-67.413333-70.101333-56.064l-106.026667-120.917333-4.394666 3.498666 95.530666 131.413334s-17.493333 70.997333 50.773334 70.101333l4.437333 4.394667s-16.64 46.464 30.634667 65.706666L236.885333 561.92s-12.288 9.642667 0.853334 29.781333c0 0 17.536 9.642667 32.426666-4.394666l210.304-168.234667 5.248 5.290667s3.498667 42.026667 49.92 46.421333c0 0 3.541333 14.037333-6.997333 31.573333 0 0-13.994667 24.490667 0 44.672 0 0 11.392 18.346667 35.925333 8.746667 0 0 23.68-10.496 11.392-25.429333 0 0-9.642667-8.746667-14.890666-9.6 0 0-3.498667-37.674667 20.138666-35.072l40.32 44.672s11.392 13.184-5.248 26.325333c0 0-14.933333 7.850667 3.498667 13.141333 0 0 6.997333-0.896 7.893333 5.248 0 0 1.706667 3.498667-13.141333 3.498667 0 0-23.68-2.645333-21.930667 6.144l21.034667 3.498667s7.893333 3.498667-2.602667 3.498666l-23.68 0.853334s-12.245333-0.853333-17.493333 7.04l26.24 0.853333s7.04 0 5.290667 6.144c0 0 0 2.645333-8.789334 2.645333l-54.314666 1.706667s-3.498667 5.290667 11.392 6.186667l27.178666 0.853333s6.997333 0.853333-0.853333 5.248c0 0 1.706667 0.853333-10.538667 2.645333l-50.816 3.498667s-12.288 6.997333-0.853333 8.746667l55.168 1.749333s6.997333 4.394667 0 7.893333h-93.781333s-5.248-1.706667-10.496 7.04c0 0-1.749333 5.248 7.893333 6.997334l125.269333 2.602666s41.216-0.853333 48.213334-40.277333c0 0 2.645333-12.288 1.749333-29.781333 0 0 4.394667-12.288 13.141333-9.642667 0 0 8.746667-3.498667 19.285334 10.496 0 0 2.602667 8.746667 3.498666 14.933333 0 0 0.853333 18.346667 28.032 16.64 0 0 19.285333-7.893333 28.032-25.429333 0 0 9.642667-10.538667-3.498666-21.930667 0 0-7.893333-11.349333-23.637334-11.349333 0 0-16.64-4.394667-15.786666-20.181333 0 0 0.853333-23.637333 27.178666-20.138667 0 0 19.242667 13.141333 34.133334 5.248 0 0 23.68-9.642667 23.68-50.816l10.496-128.810667s-6.101333-6.997333-12.245334 11.392z"  horiz-adv-x="1024" />

    
    <glyph glyph-name="chaxunjieguo-dangqianzhuangtai" unicode="&#58933;" d="M105.849923 896C75.271057 896 41.791118 871.223277 41.791118 840.487596v-913.132006c0-30.500459 32.774273-55.35559 63.274732-55.35559 30.422052 0 64.058806 24.85513 64.058805 55.35559V840.566003c0 30.657274-32.774273 55.433997-63.274732 55.433997z m657.367229-76.05513c-179.552833 0-179.552833 73.70291-359.184074 73.702909C300.300153 893.569372 220.246248 845.192037 220.246248 845.192037l-0.784073-551.125268s80.837979 48.298928 184.570903 48.298928c179.552833 0 179.552833-73.624502 359.184074-73.624503 112.357734 0 225.264319 59.040735 225.264318 59.040736V878.82879s-112.906585-58.805513-225.264318-58.805513z"  horiz-adv-x="1024" />

    
    <glyph glyph-name="shenbaowanbi-huise" unicode="&#58927;" d="M860.928 34.901333a479.36 479.36 0 1 1-677.76 0c187.221333-187.093333 490.581333-187.093333 677.76 0z m-103.808 526.933334a41.642667 41.642667 0 1 0 58.197333-58.154667l-322.688-322.645333c-18.56-17.493333-47.530667-17.493333-66.133333 0L242.688 363.52a41.642667 41.642667 0 1 0 58.197333 58.197333l154.709334-158.037333 301.525333 298.197333z"  horiz-adv-x="1024" />

    
    <glyph glyph-name="shenbaozhong-lanse" unicode="&#58928;" d="M742.23616 254.3616l-186.20416 107.7248V655.85152a44.89216 44.89216 0 0 1-89.78432 0v-314.368c0-16.62976 20.6848-30.63808 34.16064-38.33856 3.72736-5.61152 13.9264-10.69056 20.19328-14.29504l185.22112-112.2304c21.42208-12.41088 44.68736-5.03808 57.09824 16.384 12.36992 21.504 0.8192 48.9472-20.6848 61.35808z m98.54976-199.31136a465.67424 465.67424 0 0 0-331.40736-137.33888 465.55136 465.55136 0 0 0-331.28448 137.216A465.7152 465.7152 0 0 0 40.96 386.4576c0 125.21472 48.7424 242.8928 137.216 331.40736A465.34656 465.34656 0 0 0 509.46048 855.04c125.17376 0 242.81088-48.7424 331.32544-137.216 182.6816-182.76352 182.6816-480.09216 0-662.7328z"  horiz-adv-x="1024" />

    
    <glyph glyph-name="shenbaowanbi-hongse" unicode="&#58929;" d="M860.928 34.901333a479.36 479.36 0 1 1-677.76 0c187.221333-187.093333 490.581333-187.093333 677.76 0z m-103.808 526.933334a41.642667 41.642667 0 1 0 58.197333-58.154667l-322.688-322.645333c-18.56-17.493333-47.530667-17.493333-66.133333 0L242.688 363.52a41.642667 41.642667 0 1 0 58.197333 58.197333l154.709334-158.037333 301.525333 298.197333z"  horiz-adv-x="1024" />

    
    <glyph glyph-name="shendantongguo-hongse" unicode="&#58930;" d="M170.666667 853.333333v-938.666666h759.466666V640l-211.456 197.802667zM933.802667 515.669333h-102.4V692.565333l-118.954667 99.584H187.733333v-816.341333h697.728V-128H85.333333V896h657.962667l190.506667-147.669333v-232.661334z m0-468.138666V-128h-102.4v175.530667h102.4zM475.861333 208.725333L424.106667 148.906667l136.192-121.045334a38.698667 38.698667 0 0 1 56.192 4.949334l217.088 273.621333-61.141334 49.877333-191.317333-241.194666-105.258667 93.610666zM281.301333 578.901333h371.2V631.722667h-371.2v-52.821334zM281.301333 408.234667h371.2v52.821333h-371.2v-52.821333z"  horiz-adv-x="1024" />

    
    <glyph glyph-name="shenbaozhong-lvse" unicode="&#58931;" d="M742.23616 254.3616l-186.20416 107.7248V655.85152a44.89216 44.89216 0 0 1-89.78432 0v-314.368c0-16.62976 20.6848-30.63808 34.16064-38.33856 3.72736-5.61152 13.9264-10.69056 20.19328-14.29504l185.22112-112.2304c21.42208-12.41088 44.68736-5.03808 57.09824 16.384 12.36992 21.504 0.8192 48.9472-20.6848 61.35808z m98.54976-199.31136a465.67424 465.67424 0 0 0-331.40736-137.33888 465.55136 465.55136 0 0 0-331.28448 137.216A465.7152 465.7152 0 0 0 40.96 386.4576c0 125.21472 48.7424 242.8928 137.216 331.40736A465.34656 465.34656 0 0 0 509.46048 855.04c125.17376 0 242.81088-48.7424 331.32544-137.216 182.6816-182.76352 182.6816-480.09216 0-662.7328z"  horiz-adv-x="1024" />

    
    <glyph glyph-name="shenbaowanbi-lanse" unicode="&#58932;" d="M860.928 34.901333a479.36 479.36 0 1 1-677.76 0c187.221333-187.093333 490.581333-187.093333 677.76 0z m-103.808 526.933334a41.642667 41.642667 0 1 0 58.197333-58.154667l-322.688-322.645333c-18.56-17.493333-47.530667-17.493333-66.133333 0L242.688 363.52a41.642667 41.642667 0 1 0 58.197333 58.197333l154.709334-158.037333 301.525333 298.197333z"  horiz-adv-x="1024" />

    
    <glyph glyph-name="danzhengxiaodui-hongse" unicode="&#58934;" d="M605.44256 161.578667l165.845333-165.845334c23.68-23.722667 23.68-60.586667 0-81.621333-23.68-23.68-60.544-23.68-81.578666 0l-165.845334 165.845333c-15.786667 15.786667-21.077333 42.112-13.184 63.146667-55.253333-47.36-123.733333-76.288-200.064-76.288-171.093333 0-310.613333 139.52-310.613333 310.613333a306.688 306.688 0 0 0 308.010667 307.968c171.093333 0 310.613333-139.52 310.613333-310.613333 0-76.373333-28.970667-147.413333-76.373333-200.064 21.077333 7.893333 44.8 2.645333 63.189333-13.141333zM326.40256 896h658.133333c21.034667 0 39.466667-18.432 39.466667-39.466667a40.490667 40.490667 0 0 0-39.466667-39.509333H326.40256a40.490667 40.490667 0 0 0-39.466667 39.509333c0 21.034667 18.432 39.466667 39.466667 39.466667z m315.904-210.602667h342.186667c21.077333 0 39.509333-18.432 39.509333-39.466666a40.490667 40.490667 0 0 0-39.466667-39.509334h-342.229333a40.490667 40.490667 0 0 0-39.466667 39.509334c0 21.034667 18.389333 39.466667 39.466667 39.466666z m105.301333-210.56h236.928c21.034667 0 39.466667-18.432 39.466667-39.509333a40.490667 40.490667 0 0 0-39.466667-39.466667h-236.928a40.490667 40.490667 0 0 0-39.509333 39.466667c0 21.077333 18.432 39.509333 39.509333 39.509333z m0-210.602666h236.928c21.034667 0 39.466667-18.432 39.466667-39.509334a40.490667 40.490667 0 0 0-39.466667-39.466666h-236.928a40.490667 40.490667 0 0 0-39.509333 39.466666c0 21.077333 18.432 39.509333 39.509333 39.509334z"  horiz-adv-x="1024" />

    
    <glyph glyph-name="danzhengxiaodui-lanse" unicode="&#58935;" d="M605.44256 161.578667l165.845333-165.845334c23.68-23.722667 23.68-60.586667 0-81.621333-23.68-23.68-60.544-23.68-81.578666 0l-165.845334 165.845333c-15.786667 15.786667-21.077333 42.112-13.184 63.146667-55.253333-47.36-123.733333-76.288-200.064-76.288-171.093333 0-310.613333 139.52-310.613333 310.613333a306.688 306.688 0 0 0 308.010667 307.968c171.093333 0 310.613333-139.52 310.613333-310.613333 0-76.373333-28.970667-147.413333-76.373333-200.064 21.077333 7.893333 44.8 2.645333 63.189333-13.141333zM326.40256 896h658.133333c21.034667 0 39.466667-18.432 39.466667-39.466667a40.490667 40.490667 0 0 0-39.466667-39.509333H326.40256a40.490667 40.490667 0 0 0-39.466667 39.509333c0 21.034667 18.432 39.466667 39.466667 39.466667z m315.904-210.602667h342.186667c21.077333 0 39.509333-18.432 39.509333-39.466666a40.490667 40.490667 0 0 0-39.466667-39.509334h-342.229333a40.490667 40.490667 0 0 0-39.466667 39.509334c0 21.034667 18.389333 39.466667 39.466667 39.466666z m105.301333-210.56h236.928c21.034667 0 39.466667-18.432 39.466667-39.509333a40.490667 40.490667 0 0 0-39.466667-39.466667h-236.928a40.490667 40.490667 0 0 0-39.509333 39.466667c0 21.077333 18.432 39.509333 39.509333 39.509333z m0-210.602666h236.928c21.034667 0 39.466667-18.432 39.466667-39.509334a40.490667 40.490667 0 0 0-39.466667-39.466666h-236.928a40.490667 40.490667 0 0 0-39.509333 39.466666c0 21.077333 18.432 39.509333 39.509333 39.509334z"  horiz-adv-x="1024" />

    
    <glyph glyph-name="shenbaozhong-hongse" unicode="&#58936;" d="M742.23616 254.3616l-186.20416 107.7248V655.85152a44.89216 44.89216 0 0 1-89.78432 0v-314.368c0-16.62976 20.6848-30.63808 34.16064-38.33856 3.72736-5.61152 13.9264-10.69056 20.19328-14.29504l185.22112-112.2304c21.42208-12.41088 44.68736-5.03808 57.09824 16.384 12.36992 21.504 0.8192 48.9472-20.6848 61.35808z m98.54976-199.31136a465.67424 465.67424 0 0 0-331.40736-137.33888 465.55136 465.55136 0 0 0-331.28448 137.216A465.7152 465.7152 0 0 0 40.96 386.4576c0 125.21472 48.7424 242.8928 137.216 331.40736A465.34656 465.34656 0 0 0 509.46048 855.04c125.17376 0 242.81088-48.7424 331.32544-137.216 182.6816-182.76352 182.6816-480.09216 0-662.7328z"  horiz-adv-x="1024" />

    
    <glyph glyph-name="danzhengxiaodui-lvse" unicode="&#58937;" d="M605.44256 161.578667l165.845333-165.845334c23.68-23.722667 23.68-60.586667 0-81.621333-23.68-23.68-60.544-23.68-81.578666 0l-165.845334 165.845333c-15.786667 15.786667-21.077333 42.112-13.184 63.146667-55.253333-47.36-123.733333-76.288-200.064-76.288-171.093333 0-310.613333 139.52-310.613333 310.613333a306.688 306.688 0 0 0 308.010667 307.968c171.093333 0 310.613333-139.52 310.613333-310.613333 0-76.373333-28.970667-147.413333-76.373333-200.064 21.077333 7.893333 44.8 2.645333 63.189333-13.141333zM326.40256 896h658.133333c21.034667 0 39.466667-18.432 39.466667-39.466667a40.490667 40.490667 0 0 0-39.466667-39.509333H326.40256a40.490667 40.490667 0 0 0-39.466667 39.509333c0 21.034667 18.432 39.466667 39.466667 39.466667z m315.904-210.602667h342.186667c21.077333 0 39.509333-18.432 39.509333-39.466666a40.490667 40.490667 0 0 0-39.466667-39.509334h-342.229333a40.490667 40.490667 0 0 0-39.466667 39.509334c0 21.034667 18.389333 39.466667 39.466667 39.466666z m105.301333-210.56h236.928c21.034667 0 39.466667-18.432 39.466667-39.509333a40.490667 40.490667 0 0 0-39.466667-39.466667h-236.928a40.490667 40.490667 0 0 0-39.509333 39.466667c0 21.077333 18.432 39.509333 39.509333 39.509333z m0-210.602666h236.928c21.034667 0 39.466667-18.432 39.466667-39.509334a40.490667 40.490667 0 0 0-39.466667-39.466666h-236.928a40.490667 40.490667 0 0 0-39.509333 39.466666c0 21.077333 18.432 39.509333 39.509333 39.509334z"  horiz-adv-x="1024" />

    
    <glyph glyph-name="shenbaowanbi-lvse" unicode="&#58938;" d="M860.928 34.901333a479.36 479.36 0 1 1-677.76 0c187.221333-187.093333 490.581333-187.093333 677.76 0z m-103.808 526.933334a41.642667 41.642667 0 1 0 58.197333-58.154667l-322.688-322.645333c-18.56-17.493333-47.530667-17.493333-66.133333 0L242.688 363.52a41.642667 41.642667 0 1 0 58.197333 58.197333l154.709334-158.037333 301.525333 298.197333z"  horiz-adv-x="1024" />

    
    <glyph glyph-name="shenbaozhong-huise" unicode="&#58939;" d="M742.23616 254.3616l-186.20416 107.7248V655.85152a44.89216 44.89216 0 0 1-89.78432 0v-314.368c0-16.62976 20.6848-30.63808 34.16064-38.33856 3.72736-5.61152 13.9264-10.69056 20.19328-14.29504l185.22112-112.2304c21.42208-12.41088 44.68736-5.03808 57.09824 16.384 12.36992 21.504 0.8192 48.9472-20.6848 61.35808z m98.54976-199.31136a465.67424 465.67424 0 0 0-331.40736-137.33888 465.55136 465.55136 0 0 0-331.28448 137.216A465.7152 465.7152 0 0 0 40.96 386.4576c0 125.21472 48.7424 242.8928 137.216 331.40736A465.34656 465.34656 0 0 0 509.46048 855.04c125.17376 0 242.81088-48.7424 331.32544-137.216 182.6816-182.76352 182.6816-480.09216 0-662.7328z"  horiz-adv-x="1024" />

    
    <glyph glyph-name="danzhengxiaodui-huise" unicode="&#58940;" d="M605.44256 161.578667l165.845333-165.845334c23.68-23.722667 23.68-60.586667 0-81.621333-23.68-23.68-60.544-23.68-81.578666 0l-165.845334 165.845333c-15.786667 15.786667-21.077333 42.112-13.184 63.146667-55.253333-47.36-123.733333-76.288-200.064-76.288-171.093333 0-310.613333 139.52-310.613333 310.613333a306.688 306.688 0 0 0 308.010667 307.968c171.093333 0 310.613333-139.52 310.613333-310.613333 0-76.373333-28.970667-147.413333-76.373333-200.064 21.077333 7.893333 44.8 2.645333 63.189333-13.141333zM326.40256 896h658.133333c21.034667 0 39.466667-18.432 39.466667-39.466667a40.490667 40.490667 0 0 0-39.466667-39.509333H326.40256a40.490667 40.490667 0 0 0-39.466667 39.509333c0 21.034667 18.432 39.466667 39.466667 39.466667z m315.904-210.602667h342.186667c21.077333 0 39.509333-18.432 39.509333-39.466666a40.490667 40.490667 0 0 0-39.466667-39.509334h-342.229333a40.490667 40.490667 0 0 0-39.466667 39.509334c0 21.034667 18.389333 39.466667 39.466667 39.466666z m105.301333-210.56h236.928c21.034667 0 39.466667-18.432 39.466667-39.509333a40.490667 40.490667 0 0 0-39.466667-39.466667h-236.928a40.490667 40.490667 0 0 0-39.509333 39.466667c0 21.077333 18.432 39.509333 39.509333 39.509333z m0-210.602666h236.928c21.034667 0 39.466667-18.432 39.466667-39.509334a40.490667 40.490667 0 0 0-39.466667-39.466666h-236.928a40.490667 40.490667 0 0 0-39.509333 39.466666c0 21.077333 18.432 39.509333 39.509333 39.509334z"  horiz-adv-x="1024" />

    
    <glyph glyph-name="shendantongguo-huise" unicode="&#58941;" d="M170.666667 853.333333v-938.666666h759.466666V640l-211.456 197.802667zM933.802667 515.669333h-102.4V692.565333l-118.954667 99.584H187.733333v-816.341333h697.728V-128H85.333333V896h657.962667l190.506667-147.669333v-232.661334z m0-468.138666V-128h-102.4v175.530667h102.4zM475.861333 208.725333L424.106667 148.906667l136.192-121.045334a38.698667 38.698667 0 0 1 56.192 4.949334l217.088 273.621333-61.141334 49.877333-191.317333-241.194666-105.258667 93.610666zM281.301333 578.901333h371.2V631.722667h-371.2v-52.821334zM281.301333 408.234667h371.2v52.821333h-371.2v-52.821333z"  horiz-adv-x="1024" />

    
    <glyph glyph-name="shendantongguo-lanse" unicode="&#58942;" d="M170.666667 853.333333v-938.666666h759.466666V640l-211.456 197.802667zM933.802667 515.669333h-102.4V692.565333l-118.954667 99.584H187.733333v-816.341333h697.728V-128H85.333333V896h657.962667l190.506667-147.669333v-232.661334z m0-468.138666V-128h-102.4v175.530667h102.4zM475.861333 208.725333L424.106667 148.906667l136.192-121.045334a38.698667 38.698667 0 0 1 56.192 4.949334l217.088 273.621333-61.141334 49.877333-191.317333-241.194666-105.258667 93.610666zM281.301333 578.901333h371.2V631.722667h-371.2v-52.821334zM281.301333 408.234667h371.2v52.821333h-371.2v-52.821333z"  horiz-adv-x="1024" />

    
    <glyph glyph-name="shendantongguo-lvse" unicode="&#58943;" d="M170.666667 853.333333v-938.666666h759.466666V640l-211.456 197.802667zM933.802667 515.669333h-102.4V692.565333l-118.954667 99.584H187.733333v-816.341333h697.728V-128H85.333333V896h657.962667l190.506667-147.669333v-232.661334z m0-468.138666V-128h-102.4v175.530667h102.4zM475.861333 208.725333L424.106667 148.906667l136.192-121.045334a38.698667 38.698667 0 0 1 56.192 4.949334l217.088 273.621333-61.141334 49.877333-191.317333-241.194666-105.258667 93.610666zM281.301333 578.901333h371.2V631.722667h-371.2v-52.821334zM281.301333 408.234667h371.2v52.821333h-371.2v-52.821333z"  horiz-adv-x="1024" />

    
    <glyph glyph-name="danzhengxiaodui-lvse-copy" unicode="&#58974;" d="M605.44256 161.578667l165.845333-165.845334c23.68-23.722667 23.68-60.586667 0-81.621333-23.68-23.68-60.544-23.68-81.578666 0l-165.845334 165.845333c-15.786667 15.786667-21.077333 42.112-13.184 63.146667-55.253333-47.36-123.733333-76.288-200.064-76.288-171.093333 0-310.613333 139.52-310.613333 310.613333a306.688 306.688 0 0 0 308.010667 307.968c171.093333 0 310.613333-139.52 310.613333-310.613333 0-76.373333-28.970667-147.413333-76.373333-200.064 21.077333 7.893333 44.8 2.645333 63.189333-13.141333zM326.40256 896h658.133333c21.034667 0 39.466667-18.432 39.466667-39.466667a40.490667 40.490667 0 0 0-39.466667-39.509333H326.40256a40.490667 40.490667 0 0 0-39.466667 39.509333c0 21.034667 18.432 39.466667 39.466667 39.466667z m315.904-210.602667h342.186667c21.077333 0 39.509333-18.432 39.509333-39.466666a40.490667 40.490667 0 0 0-39.466667-39.509334h-342.229333a40.490667 40.490667 0 0 0-39.466667 39.509334c0 21.034667 18.389333 39.466667 39.466667 39.466666z m105.301333-210.56h236.928c21.034667 0 39.466667-18.432 39.466667-39.509333a40.490667 40.490667 0 0 0-39.466667-39.466667h-236.928a40.490667 40.490667 0 0 0-39.509333 39.466667c0 21.077333 18.432 39.509333 39.509333 39.509333z m0-210.602666h236.928c21.034667 0 39.466667-18.432 39.466667-39.509334a40.490667 40.490667 0 0 0-39.466667-39.466666h-236.928a40.490667 40.490667 0 0 0-39.509333 39.466666c0 21.077333 18.432 39.509333 39.509333 39.509334z"  horiz-adv-x="1024" />

    
    <glyph glyph-name="rukuchukou-yuluru-huise" unicode="&#58975;" d="M811.25376 537.47712s32.9728 30.22848 34.93888 32.19456c1.96608 1.96608 44.8512 39.56736 99.81952-4.9152 13.18912-11.4688 67.91168-64.59392 41.53344-112.96768-6.84032-10.15808-13.18912-15.44192-44.4416-46.40768l-131.85024 132.096z m-53.6576-52.71552l131.72736-132.13696-297.61536-299.49952-26.78784-23.7568s-9.87136-10.89536-38.0928-21.58592c-28.2624-10.93632-69.2224-26.2144-117.63712-37.0688-13.84448-1.96608-38.62528-6.30784-35.47136 25.1904 2.8672 31.66208 23.3472 86.016 34.52928 121.07776 14.37696 33.09568 25.1904 43.008 45.50656 64.22528s303.84128 303.5136 303.84128 303.5136zM211.7632 279.01952000000006h311.5008c87.6544 87.57248 212.5824 212.04992 220.3648 219.83232l13.9264 13.96736 25.06752 25.35424 15.1552 13.9264c12.288 11.22304 32.48128 29.81888 34.4064 31.82592 0.16384 0.12288 7.70048 7.49568 21.13536 13.84448V823.5008c0 37.84704-31.00672 68.73088-68.68992 68.73088H86.91712C49.07008 892.23168 18.18624 861.184 18.18624 823.5008v-879.0016c0-37.84704 31.00672-68.73088 68.73088-68.73088h697.71264c37.84704 0 68.68992 31.00672 68.68992 68.73088v344.064l-236.3392-238.05952h42.5984a22.69184 22.69184 0 1 0 0-45.34272h-93.5936a170.27072 170.27072 0 0 0-32.07168-15.9744c-33.09568-12.77952-73.44128-27.4432-120.38144-37.84704l-0.8192-0.12288-1.80224-0.28672c-4.5056-0.65536-9.91232-1.4336-15.9744-1.4336-13.312 0-23.87968 4.096-31.25248 12.288-7.90528 8.68352-11.0592 20.80768-9.6256 35.96288 0.28672 2.37568 0.53248 4.75136 0.94208 7.24992H211.7632a22.69184 22.69184 0 1 0 0 45.38368h154.0096c4.9152 16.22016 10.4448 32.9728 15.85152 48.78336 2.8672 8.6016 5.5296 16.46592 7.90528 23.7568l0.28672 0.90112 0.4096 0.94208c14.62272 33.87392 26.74688 46.40768 44.93312 65.536 1.47456 1.4336 2.78528 2.8672 4.34176 4.5056 4.096 4.17792 18.35008 18.55488 38.5024 38.74816h-266.24a22.69184 22.69184 0 0 0-22.65088 22.65088c0 12.53376 10.24 22.81472 22.65088 22.81472zM189.11232 713.3184c0 12.53376 10.15808 22.69184 22.65088 22.69184h447.85664a22.69184 22.69184 0 1 0 0-45.38368H211.7632a22.77376 22.77376 0 0 0-22.65088 22.69184z m22.65088-205.70112h447.85664a22.69184 22.69184 0 1 0 0-45.38368H211.7632a22.69184 22.69184 0 1 0 0 45.38368z"  horiz-adv-x="1024" />

    
    <glyph glyph-name="rukuchukou-yuluru-lvse-" unicode="&#58976;" d="M811.25376 537.47712s32.9728 30.22848 34.93888 32.19456c1.96608 1.96608 44.8512 39.56736 99.81952-4.9152 13.18912-11.4688 67.91168-64.59392 41.53344-112.96768-6.84032-10.15808-13.18912-15.44192-44.4416-46.40768l-131.85024 132.096z m-53.6576-52.71552l131.72736-132.13696-297.61536-299.49952-26.78784-23.7568s-9.87136-10.89536-38.0928-21.58592c-28.2624-10.93632-69.2224-26.2144-117.63712-37.0688-13.84448-1.96608-38.62528-6.30784-35.47136 25.1904 2.8672 31.66208 23.3472 86.016 34.52928 121.07776 14.37696 33.09568 25.1904 43.008 45.50656 64.22528s303.84128 303.5136 303.84128 303.5136zM211.7632 279.01952000000006h311.5008c87.6544 87.57248 212.5824 212.04992 220.3648 219.83232l13.9264 13.96736 25.06752 25.35424 15.1552 13.9264c12.288 11.22304 32.48128 29.81888 34.4064 31.82592 0.16384 0.12288 7.70048 7.49568 21.13536 13.84448V823.5008c0 37.84704-31.00672 68.73088-68.68992 68.73088H86.91712C49.07008 892.23168 18.18624 861.184 18.18624 823.5008v-879.0016c0-37.84704 31.00672-68.73088 68.73088-68.73088h697.71264c37.84704 0 68.68992 31.00672 68.68992 68.73088v344.064l-236.3392-238.05952h42.5984a22.69184 22.69184 0 1 0 0-45.34272h-93.5936a170.27072 170.27072 0 0 0-32.07168-15.9744c-33.09568-12.77952-73.44128-27.4432-120.38144-37.84704l-0.8192-0.12288-1.80224-0.28672c-4.5056-0.65536-9.91232-1.4336-15.9744-1.4336-13.312 0-23.87968 4.096-31.25248 12.288-7.90528 8.68352-11.0592 20.80768-9.6256 35.96288 0.28672 2.37568 0.53248 4.75136 0.94208 7.24992H211.7632a22.69184 22.69184 0 1 0 0 45.38368h154.0096c4.9152 16.22016 10.4448 32.9728 15.85152 48.78336 2.8672 8.6016 5.5296 16.46592 7.90528 23.7568l0.28672 0.90112 0.4096 0.94208c14.62272 33.87392 26.74688 46.40768 44.93312 65.536 1.47456 1.4336 2.78528 2.8672 4.34176 4.5056 4.096 4.17792 18.35008 18.55488 38.5024 38.74816h-266.24a22.69184 22.69184 0 0 0-22.65088 22.65088c0 12.53376 10.24 22.81472 22.65088 22.81472zM189.11232 713.3184c0 12.53376 10.15808 22.69184 22.65088 22.69184h447.85664a22.69184 22.69184 0 1 0 0-45.38368H211.7632a22.77376 22.77376 0 0 0-22.65088 22.69184z m22.65088-205.70112h447.85664a22.69184 22.69184 0 1 0 0-45.38368H211.7632a22.69184 22.69184 0 1 0 0 45.38368z"  horiz-adv-x="1024" />

    
    <glyph glyph-name="rukuchukou-yuluru-hongse" unicode="&#58977;" d="M811.25376 537.47712s32.9728 30.22848 34.93888 32.19456c1.96608 1.96608 44.8512 39.56736 99.81952-4.9152 13.18912-11.4688 67.91168-64.59392 41.53344-112.96768-6.84032-10.15808-13.18912-15.44192-44.4416-46.40768l-131.85024 132.096z m-53.6576-52.71552l131.72736-132.13696-297.61536-299.49952-26.78784-23.7568s-9.87136-10.89536-38.0928-21.58592c-28.2624-10.93632-69.2224-26.2144-117.63712-37.0688-13.84448-1.96608-38.62528-6.30784-35.47136 25.1904 2.8672 31.66208 23.3472 86.016 34.52928 121.07776 14.37696 33.09568 25.1904 43.008 45.50656 64.22528s303.84128 303.5136 303.84128 303.5136zM211.7632 279.01952000000006h311.5008c87.6544 87.57248 212.5824 212.04992 220.3648 219.83232l13.9264 13.96736 25.06752 25.35424 15.1552 13.9264c12.288 11.22304 32.48128 29.81888 34.4064 31.82592 0.16384 0.12288 7.70048 7.49568 21.13536 13.84448V823.5008c0 37.84704-31.00672 68.73088-68.68992 68.73088H86.91712C49.07008 892.23168 18.18624 861.184 18.18624 823.5008v-879.0016c0-37.84704 31.00672-68.73088 68.73088-68.73088h697.71264c37.84704 0 68.68992 31.00672 68.68992 68.73088v344.064l-236.3392-238.05952h42.5984a22.69184 22.69184 0 1 0 0-45.34272h-93.5936a170.27072 170.27072 0 0 0-32.07168-15.9744c-33.09568-12.77952-73.44128-27.4432-120.38144-37.84704l-0.8192-0.12288-1.80224-0.28672c-4.5056-0.65536-9.91232-1.4336-15.9744-1.4336-13.312 0-23.87968 4.096-31.25248 12.288-7.90528 8.68352-11.0592 20.80768-9.6256 35.96288 0.28672 2.37568 0.53248 4.75136 0.94208 7.24992H211.7632a22.69184 22.69184 0 1 0 0 45.38368h154.0096c4.9152 16.22016 10.4448 32.9728 15.85152 48.78336 2.8672 8.6016 5.5296 16.46592 7.90528 23.7568l0.28672 0.90112 0.4096 0.94208c14.62272 33.87392 26.74688 46.40768 44.93312 65.536 1.47456 1.4336 2.78528 2.8672 4.34176 4.5056 4.096 4.17792 18.35008 18.55488 38.5024 38.74816h-266.24a22.69184 22.69184 0 0 0-22.65088 22.65088c0 12.53376 10.24 22.81472 22.65088 22.81472zM189.11232 713.3184c0 12.53376 10.15808 22.69184 22.65088 22.69184h447.85664a22.69184 22.69184 0 1 0 0-45.38368H211.7632a22.77376 22.77376 0 0 0-22.65088 22.69184z m22.65088-205.70112h447.85664a22.69184 22.69184 0 1 0 0-45.38368H211.7632a22.69184 22.69184 0 1 0 0 45.38368z"  horiz-adv-x="1024" />

    
    <glyph glyph-name="chukuchukou-weituozhong-lvse" unicode="&#58978;" d="M1013.71904-71.72095999999999c44.35968-34.48832 59.14624 0 59.14624 0l182.39488 202.1376c9.8304 0 24.65792 24.61696 9.8304 44.35968-19.6608 19.70176-246.45632 211.968-261.24288 226.75456-19.70176 19.70176-34.48832 19.70176-34.48832 19.70176h-389.44768s-69.0176-9.8304-69.0176-69.0176c0-44.35968 24.65792-78.848 69.0176-88.71936 44.35968-9.8304 123.24864-24.65792 192.26624-34.48832 24.61696 0 0-19.74272 0-19.74272l-88.76032-59.14624h-246.45632s-123.24864 88.71936-207.0528 157.73696c-128.16384 93.67552-182.39488 0-182.39488 0s-14.7456-34.48832 0-54.23104c69.0176-59.14624 320.43008-236.58496 335.21664-256.32768 14.78656-19.70176 44.35968-9.8304 44.35968-9.8304h409.1904c59.10528 0 118.29248-19.74272 162.6112-54.23104l14.82752-4.9152zM185.5488 529.69472h571.8016c29.61408 0 59.1872 24.65792 59.1872 59.14624 0 29.57312-24.65792 59.14624-59.14624 59.14624H185.5488c-29.61408 0-59.1872-24.61696-59.1872-59.14624 4.9152-29.57312 29.57312-59.14624 59.14624-59.14624z m0 207.0528h571.8016c29.61408 0 59.1872 24.61696 59.1872 59.14624 0 29.57312-24.65792 59.14624-59.14624 59.14624H185.5488a64.14336 64.14336 0 0 1-54.272-64.1024c0-29.57312 24.65792-54.19008 54.23104-54.19008z"  horiz-adv-x="1310" />

    
    <glyph glyph-name="chukuchukou-weituozhong-lanse" unicode="&#58979;" d="M1013.71904-71.72095999999999c44.35968-34.48832 59.14624 0 59.14624 0l182.39488 202.1376c9.8304 0 24.65792 24.61696 9.8304 44.35968-19.6608 19.70176-246.45632 211.968-261.24288 226.75456-19.70176 19.70176-34.48832 19.70176-34.48832 19.70176h-389.44768s-69.0176-9.8304-69.0176-69.0176c0-44.35968 24.65792-78.848 69.0176-88.71936 44.35968-9.8304 123.24864-24.65792 192.26624-34.48832 24.61696 0 0-19.74272 0-19.74272l-88.76032-59.14624h-246.45632s-123.24864 88.71936-207.0528 157.73696c-128.16384 93.67552-182.39488 0-182.39488 0s-14.7456-34.48832 0-54.23104c69.0176-59.14624 320.43008-236.58496 335.21664-256.32768 14.78656-19.70176 44.35968-9.8304 44.35968-9.8304h409.1904c59.10528 0 118.29248-19.74272 162.6112-54.23104l14.82752-4.9152zM185.5488 529.69472h571.8016c29.61408 0 59.1872 24.65792 59.1872 59.14624 0 29.57312-24.65792 59.14624-59.14624 59.14624H185.5488c-29.61408 0-59.1872-24.61696-59.1872-59.14624 4.9152-29.57312 29.57312-59.14624 59.14624-59.14624z m0 207.0528h571.8016c29.61408 0 59.1872 24.61696 59.1872 59.14624 0 29.57312-24.65792 59.14624-59.14624 59.14624H185.5488a64.14336 64.14336 0 0 1-54.272-64.1024c0-29.57312 24.65792-54.19008 54.23104-54.19008z"  horiz-adv-x="1310" />

    
    <glyph glyph-name="chukuchukou-weituozhong-hongse" unicode="&#58981;" d="M1013.71904-71.72095999999999c44.35968-34.48832 59.14624 0 59.14624 0l182.39488 202.1376c9.8304 0 24.65792 24.61696 9.8304 44.35968-19.6608 19.70176-246.45632 211.968-261.24288 226.75456-19.70176 19.70176-34.48832 19.70176-34.48832 19.70176h-389.44768s-69.0176-9.8304-69.0176-69.0176c0-44.35968 24.65792-78.848 69.0176-88.71936 44.35968-9.8304 123.24864-24.65792 192.26624-34.48832 24.61696 0 0-19.74272 0-19.74272l-88.76032-59.14624h-246.45632s-123.24864 88.71936-207.0528 157.73696c-128.16384 93.67552-182.39488 0-182.39488 0s-14.7456-34.48832 0-54.23104c69.0176-59.14624 320.43008-236.58496 335.21664-256.32768 14.78656-19.70176 44.35968-9.8304 44.35968-9.8304h409.1904c59.10528 0 118.29248-19.74272 162.6112-54.23104l14.82752-4.9152zM185.5488 529.69472h571.8016c29.61408 0 59.1872 24.65792 59.1872 59.14624 0 29.57312-24.65792 59.14624-59.14624 59.14624H185.5488c-29.61408 0-59.1872-24.61696-59.1872-59.14624 4.9152-29.57312 29.57312-59.14624 59.14624-59.14624z m0 207.0528h571.8016c29.61408 0 59.1872 24.61696 59.1872 59.14624 0 29.57312-24.65792 59.14624-59.14624 59.14624H185.5488a64.14336 64.14336 0 0 1-54.272-64.1024c0-29.57312 24.65792-54.19008 54.23104-54.19008z"  horiz-adv-x="1310" />

    
    <glyph glyph-name="chukuchukou-weituozhong-huise" unicode="&#58982;" d="M1013.71904-71.72095999999999c44.35968-34.48832 59.14624 0 59.14624 0l182.39488 202.1376c9.8304 0 24.65792 24.61696 9.8304 44.35968-19.6608 19.70176-246.45632 211.968-261.24288 226.75456-19.70176 19.70176-34.48832 19.70176-34.48832 19.70176h-389.44768s-69.0176-9.8304-69.0176-69.0176c0-44.35968 24.65792-78.848 69.0176-88.71936 44.35968-9.8304 123.24864-24.65792 192.26624-34.48832 24.61696 0 0-19.74272 0-19.74272l-88.76032-59.14624h-246.45632s-123.24864 88.71936-207.0528 157.73696c-128.16384 93.67552-182.39488 0-182.39488 0s-14.7456-34.48832 0-54.23104c69.0176-59.14624 320.43008-236.58496 335.21664-256.32768 14.78656-19.70176 44.35968-9.8304 44.35968-9.8304h409.1904c59.10528 0 118.29248-19.74272 162.6112-54.23104l14.82752-4.9152zM185.5488 529.69472h571.8016c29.61408 0 59.1872 24.65792 59.1872 59.14624 0 29.57312-24.65792 59.14624-59.14624 59.14624H185.5488c-29.61408 0-59.1872-24.61696-59.1872-59.14624 4.9152-29.57312 29.57312-59.14624 59.14624-59.14624z m0 207.0528h571.8016c29.61408 0 59.1872 24.61696 59.1872 59.14624 0 29.57312-24.65792 59.14624-59.14624 59.14624H185.5488a64.14336 64.14336 0 0 1-54.272-64.1024c0-29.57312 24.65792-54.19008 54.23104-54.19008z"  horiz-adv-x="1310" />

    
    <glyph glyph-name="chaxun" unicode="&#58944;" d="M448 810.642286a361.325714 361.325714 0 1 0-1.170286-722.505143 361.325714 361.325714 0 0 0 1.170286 722.505143z m0 85.357714a448 448 0 1 1 0-896 448 448 0 0 1 0 896z m328.850286-716.507429l-60.342857-60.342857L963.730286-128l60.269714 60.342857-247.222857 247.222857z"  horiz-adv-x="1024" />

    
    <glyph glyph-name="dizhi" unicode="&#58954;" d="M499.205483 383.488219a137.668999 137.668999 0 1 1 0 275.264887 137.668999 137.668999 0 0 1 0-275.337998z m0-511.488219c-74.573754 0-393.413109 412.129659-393.413108 629.490218a393.413109 393.413109 0 0 0 786.826217 0c0-217.36056-318.766243-629.490218-393.413109-629.490218z"  horiz-adv-x="1024" />

    
    <glyph glyph-name="huizongdangqian" unicode="&#58955;" d="M819.2 864H166.4c-38.4 0-64-25.6-64-64v-844.8c0-32 32-64 64-64h409.6c38.4 0 64 25.6 64 64v134.4c0 32 32 64 64 64h108.8c38.4 0 64 25.6 64 64V806.4c12.8 32-19.2 57.6-57.6 57.6zM608 339.2c0-19.2-12.8-32-32-32H288c-19.2 0-32 12.8-32 32v6.4c0 19.2 12.8 32 32 32h288c19.2 0 32-12.8 32-38.4zM748.8 512c0-19.2-12.8-32-32-32H288c-19.2 6.4-38.4 19.2-38.4 32v6.4c0 19.2 12.8 32 32 32h428.8c25.6 0 38.4-12.8 38.4-38.4z m0 172.8c0-19.2-12.8-32-32-32H288c-19.2 0-32 12.8-32 32v6.4c0 19.2 12.8 32 32 32h428.8c19.2 0 32-12.8 32-38.4z m-64-640v-89.6c0-32 38.4-44.8 57.6-25.6l128 128c19.2 19.2 6.4 57.6-25.6 57.6h-89.6c-38.4 0-70.4-32-70.4-70.4z"  horiz-adv-x="1024" />

    
    <glyph glyph-name="guanliyuan-yonghuchaxun" unicode="&#58956;" d="M949.930667-55.823515l-69.880243 72.083394a187.609212 187.609212 0 0 1 38.787879 114.191515 188.509091 188.509091 0 1 1-188.540121-188.509091c42.97697 0 82.478545 14.584242 114.191515 38.787879l69.849212-72.083394a25.103515 25.103515 0 0 1 42.945939 17.749333 25.103515 25.103515 0 0 1-7.354181 17.780364z m-219.632485 48.065939a138.20897 138.20897 0 1 0 138.24 138.24 138.20897 138.20897 0 0 0-138.24-138.24z m-224.535273 426.263273c130.699636 0 234.030545 108.916364 234.030546 234.030545 0 130.699636-103.330909 234.030545-234.030546 234.030546s-234.030545-103.330909-234.030545-234.030546 103.330909-234.030545 234.030545-234.030545zM648.533333 396.505212l-240.484848 9.464243c-157.540848 0-250.259394-127.627636-250.259394-127.627637C70.656 173.924848 76.241455 28.392727 76.241455 28.392727c0-98.397091 141.312-104.385939 141.312-104.385939 49.152-5.957818 184.878545-5.957818 255.813818-5.957818 43.752727 0 75.093333 5.895758 94.145939 16.104727-48.190061 51.603394-77.979152 122.817939-77.979151 201.448727 0 116.456727 65.349818 216.529455 158.999272 260.902788z"  horiz-adv-x="1024" />

    
    <glyph glyph-name="tishi" unicode="&#58957;" d="M469.2992-42.7008A469.8112 469.8112 0 0 0 0 426.7008 469.8112 469.8112 0 0 0 469.2992 896a469.8112 469.8112 0 0 0 469.4016-469.2992 469.8112 469.8112 0 0 0-469.4016-469.4016z"  horiz-adv-x="1024" />

    
    <glyph glyph-name="yonghu" unicode="&#58958;" d="M1023.871589 383.509182c0-282.417913-229.219252-511.46652-511.978456-511.466521C229.091268-127.957339 0 101.048607 0 383.509182 0 600.271329 134.937743 785.506764 325.505843 859.950761A497.004334 497.004334 0 0 0 511.935795 895.999573c65.997056 0 128.837175-12.798395 186.472613-36.048812C888.933846 785.506764 1023.871589 600.271329 1023.871589 383.509182zM513.940877-94.809496c149.570575 0 283.015172 68.812703 370.47087 176.447204-10.324039 84.896019-93.086992 157.20695-210.192305 193.255762-44.239785-39.803008-100.723368-63.736006-162.36897-63.736006-62.968103 0-120.646202 25.212838-165.269939 66.76496-113.905714-32.550584-197.351249-98.84627-216.932793-178.324302a476.313596 476.313596 0 0 1 384.293137-194.407618z m-198.801734 586.166485c0-86.175859 44.154462-160.833162 108.359743-197.351249a177.897689 177.897689 0 0 1 88.394247-23.890337c30.716148 0 59.597859 8.190973 85.535939 22.311868 65.698427 35.835506 111.303374 111.346035 111.303374 198.929718 0 121.88338-88.308925 221.113602-196.839313 221.113602-108.487727 0-196.75399-99.18756-196.75399-221.113602z"  horiz-adv-x="1024" />

    
    <glyph glyph-name="huizongsuoyou" unicode="&#58959;" d="M387.291429 831.634286H137.362286C91.501714 831.561143 54.345143 794.331429 54.272 748.470857v-249.856c0.073143-45.860571 37.302857-83.017143 83.090286-83.090286h249.929143c45.860571 0 83.017143 37.229714 83.090285 83.090286V748.470857c0 45.933714-37.229714 83.090286-83.090285 83.163429m609.865142-149.284572L820.443429 858.989714a83.236571 83.236571 0 0 1-117.540572 0L678.473143 834.56 526.189714 682.349714c-15.579429-15.506286-24.283429-36.571429-24.283428-58.587428-0.073143-22.089143 8.630857-43.300571 24.283428-58.953143l24.429715-24.429714L678.473143 412.525714l24.429714-24.502857a83.090286 83.090286 0 0 1 117.540572 0l152.210285 152.356572 24.502857 24.429714a83.163429 83.163429 0 0 1 0 117.467428M387.291429 332.288H137.362286c-45.860571-0.073143-83.017143-37.302857-83.090286-83.090286v-249.929143c0.073143-45.860571 37.302857-83.017143 83.090286-83.090285h249.929143c45.860571 0 83.017143 37.229714 83.090285 83.090285V249.197714c0 45.860571-37.229714 83.017143-83.090285 83.090286m499.346285 0H636.708571c-45.860571-0.073143-83.017143-37.302857-83.090285-83.090286v-249.929143c0-45.860571 37.229714-83.017143 83.090285-83.090285h249.929143c45.860571 0 83.017143 37.229714 83.090286 83.090285V249.197714c-0.073143 45.860571-37.302857 83.017143-83.090286 83.090286"  horiz-adv-x="1024" />

    
    <glyph glyph-name="qiyexinxi" unicode="&#58960;" d="M1124.848485-50.424242H1086.060606V492.606061c0 85.333333-69.818182 155.151515-155.151515 155.151515h-232.727273v-659.39394c0-21.721212-17.066667-38.787879-38.787879-38.787878S620.606061-33.357576 620.606061-11.636364V725.333333c0 85.333333-69.818182 155.151515-155.151516 155.151515H232.727273c-85.333333 0-155.151515-69.818182-155.151515-155.151515v-775.757575H38.787879c-21.721212 0-38.787879-17.066667-38.787879-38.787879S17.066667-128 38.787879-128h1086.060606c21.721212 0 38.787879 17.066667 38.787879 38.787879s-17.066667 38.787879-38.787879 38.787879z m-698.181818 155.151515h-155.151515c-21.721212 0-38.787879 17.066667-38.787879 38.787879S249.793939 182.30303 271.515152 182.30303h155.151515c21.721212 0 38.787879-17.066667 38.787878-38.787878s-17.066667-38.787879-38.787878-38.787879z m0 232.727272h-155.151515c-21.721212 0-38.787879 17.066667-38.787879 38.787879s17.066667 38.787879 38.787879 38.787879h155.151515c21.721212 0 38.787879-17.066667 38.787878-38.787879S448.387879 337.454545 426.666667 337.454545z m0 232.727273h-155.151515c-21.721212 0-38.787879 17.066667-38.787879 38.787879S249.793939 647.757576 271.515152 647.757576h155.151515c21.721212 0 38.787879-17.066667 38.787878-38.787879s-17.066667-38.787879-38.787878-38.787879z m543.030303-465.454545h-155.151515c-21.721212 0-38.787879 17.066667-38.787879 38.787879S792.824242 182.30303 814.545455 182.30303h155.151515c21.721212 0 38.787879-17.066667 38.787878-38.787878s-17.066667-38.787879-38.787878-38.787879z m0 232.727272h-155.151515c-21.721212 0-38.787879 17.066667-38.787879 38.787879s17.066667 38.787879 38.787879 38.787879h155.151515c21.721212 0 38.787879-17.066667 38.787878-38.787879S991.418182 337.454545 969.69697 337.454545z"  horiz-adv-x="1179" />

    
    <glyph glyph-name="gongchang" unicode="&#58961;" d="M983.612235 470.226824a19.847529 19.847529 0 0 1-20.299294-0.421648L752.941176 341.112471v111.646117a20.088471 20.088471 0 0 1-30.569411 17.106824L512 341.112471v111.585882a20.178824 20.178824 0 0 1-30.418824 17.227294l-223.472941-134.625882-18.974117 511.277176A20.088471 20.088471 0 0 1 219.045647 865.882353H73.336471a20.088471 20.088471 0 0 1-20.088471-19.576471l-21.775059-923.617882a20.088471 20.088471 0 0 1 20.058353-20.570353h922.262588a20.088471 20.088471 0 0 1 20.088471 20.088471V452.668235a20.088471 20.088471 0 0 1-10.270118 17.528471zM471.853176 417.129412v-474.895059H272.655059l-12.890353 347.075765 212.08847 127.819294zM72.071529-57.735529l20.841412 883.471058h106.797177l19.456-525.462588c0-0.240941-0.150588-0.451765-0.150589-0.692706l13.342118-354.334117 0.120471-2.981647H72.071529zM512 294.008471l200.794353 122.88v-474.624H512V294.008471z m441.735529-351.744H752.941176V294.008471l200.794353 122.88v-474.624zM371.742118 177.784471a20.088471 20.088471 0 0 1 20.058353 20.08847v50.477177a20.088471 20.088471 0 1 1-40.146824 0v-50.477177c0-11.083294 8.975059-20.088471 20.088471-20.08847z m240.971294 90.654117a20.088471 20.088471 0 0 1-20.088471-20.08847v-50.477177a20.088471 20.088471 0 0 1 40.176941 0v50.477177a20.088471 20.088471 0 0 1-20.08847 20.08847z m240.941176-90.654117a20.088471 20.088471 0 0 1 20.088471 20.08847v50.477177a20.088471 20.088471 0 0 1-40.176941 0v-50.477177c0-11.083294 9.005176-20.088471 20.08847-20.08847z"  horiz-adv-x="1024" />

    
    <glyph glyph-name="weixingcang" unicode="&#58962;" d="M887.466667-117.589333H204.8c-57.412267 0.375467-103.765333 50.210133-103.765333 111.547733V385.536c0 20.548267 15.598933 37.205333 34.816 37.205333 17.6128-2.218667 30.856533-18.261333 30.72-37.205333v-394.478933c0-20.2752 15.1552-36.795733 34.133333-37.205334H887.466667c19.217067 0 34.816 16.657067 34.816 37.205334V391.3728c3.2768 17.408 17.544533 29.866667 34.133333 29.866667s30.856533-12.4928 34.133333-29.866667v-397.4144c-0.341333-60.893867-46.08-110.3872-103.082666-111.547733z m-845.141334 546.133333a35.328 35.328 0 0 0-27.306666 13.892267A38.980267 38.980267 0 0 0 20.48 494.933333L451.242667 859.5456C499.9168 902.724267 569.992533 904.533333 620.544 863.914667l450.56-364.612267c7.441067-5.802667 12.356267-14.574933 13.653333-24.337067 1.297067-9.762133-1.160533-19.6608-6.826666-27.4432-11.3664-16.418133-33.006933-20.002133-48.469334-8.021333L576.853333 804.113067a64.785067 64.785067 0 0 1-80.554666 0L63.488 436.599467a29.559467 29.559467 0 0 0-21.162667-8.021334zM698.811733 481.0752l-55.944533 59.733333c-7.7824 8.362667-20.138667 8.362667-27.306667 0l-81.3056-86.8352c-7.7824-8.328533-7.7824-21.504 0-29.184l22.1184-23.620266-11.0592-11.810134-7.168 7.645867a50.3808 50.3808 0 0 1-37.034666 15.9744c-17.578667 15.291733-40.3456 17.408-53.3504 3.4816-12.970667-13.892267-11.0592-38.229333 3.242666-56.968533 0-14.574933 4.573867-28.4672 14.984534-39.594667l7.168-7.645867-11.093334-11.810133-22.084266 23.620267c-7.850667 8.362667-20.1728 8.362667-27.306667 0L331.332267 237.226667c-7.816533-8.328533-7.816533-21.504 0-29.149867l55.9104-59.733333c7.816533-8.362667 20.138667-8.362667 27.306666 0l81.3056 86.801066c7.816533 8.328533 7.816533 21.538133 0 29.184l-18.8416 20.138667 11.025067 11.810133 24.746667-26.385066c6.485333 15.9744 16.896 31.9488 29.9008 45.841066 13.0048 13.892267 27.989333 25.019733 42.9056 31.9488l-24.712534 26.4192 11.0592 11.810134 18.875734-20.138667c7.816533-8.362667 20.138667-8.362667 27.306666 0l81.3056 86.8352a20.8896 20.8896 0 0 1-0.682666 28.4672z m-18.875733-150.050133a19.831467 19.831467 0 0 1-4.539733 3.4816s-0.682667 0-0.682667 0.682666c-1.262933 0.682667-1.911467 1.365333-3.208533 2.082134h-0.682667c-31.8464 18.773333-81.271467 5.563733-117.691733-33.348267-37.0688-39.594667-48.810667-91.682133-31.232-125.7472 0.682667-1.365333 1.297067-2.048 1.9456-3.447467 0 0 0-0.682667 0.682666-0.682666 1.297067-2.116267 2.594133-3.515733 3.242667-4.881067 13.653333-9.728 44.202667 2.7648 76.731733 30.549333l-16.247466 13.892267c-19.524267-16.657067-35.157333-25.7024-39.697067-21.504-5.8368 6.2464 13.653333 37.4784 43.588267 69.461333 29.9008 31.9488 59.1872 52.770133 65.024 46.523734 3.925333-4.164267-3.242667-18.773333-16.896-37.512534l13.0048-17.373866c24.712533 33.348267 35.771733 63.931733 26.658133 77.824z m-78.0288-93.0816c-5.2224 4.164267-5.2224 11.810133-0.682667 16.657066l1.979734 2.082134a10.171733 10.171733 0 0 0 15.598933-0.682667l17.578667-22.9376c3.8912-5.563733 3.8912-13.892267-0.682667-18.773333l5.870933 6.280533a12.3904 12.3904 0 0 0-17.544533-0.682667l-22.1184 18.056534z m42.0864-9.386667c-8.2944 0-15.189333-7.338667-15.633067-15.701333 0-8.874667 6.4512-15.701333 15.633067-15.701334a15.803733 15.803733 0 0 1 15.633067 15.701334c-0.443733 9.3184-7.338667 15.701333-15.633067 15.701333z m38.638933 0c0-14.7456-5.5296-28.4672-16.110933-38.8096a50.9952 50.9952 0 0 0-38.161067-16.213333v-22.596267c42.325333 0 75.8784 34.884267 76.322134 77.6192H682.666667z m39.082667 0.512c0-52.087467-41.847467-94.8224-93.354667-94.8224v-22.596267c63.488 0 115.4048 52.565333 115.4048 117.418667h-22.050133z"  horiz-adv-x="1092" />

    
    <glyph glyph-name="zhongxincang" unicode="&#58963;" d="M923.204267-95.232H213.162667a108.6464 108.6464 0 0 0-107.9296 108.612267v381.269333c0 20.002133 16.213333 36.215467 36.215466 36.215467 18.3296-2.1504 32.085333-17.749333 31.9488-36.181334v-384.136533c0-19.729067 15.803733-35.84 35.498667-36.215467h714.308267a36.181333 36.181333 0 0 1 36.181333 36.181334v389.802666a36.181333 36.181333 0 0 0 70.997333 0v-386.935466a109.329067 109.329067 0 0 0-107.178666-108.6464zM44.168533 436.565333a37.614933 37.614933 0 0 0-28.398933 13.482667 36.181333 36.181333 0 0 0 5.700267 51.131733l448 354.986667a141.994667 141.994667 0 0 0 176.128 4.266667l468.5824-354.986667a35.498667 35.498667 0 0 0 7.099733-50.449067 36.181333 36.181333 0 0 0-50.414933-7.7824l-470.7328 354.986667a70.997333 70.997333 0 0 1-83.797334 0L66.218667 444.347733a31.9488 31.9488 0 0 0-22.016-7.7824zM287.9488 269.380267h71.099733c9.659733 0 14.506667-4.8128 14.506667-14.472534v-71.099733c0-9.659733-4.846933-14.506667-14.506667-14.506667H287.9488c-9.659733 0-14.506667 4.846933-14.506667 14.506667v71.0656c0 9.693867 4.846933 14.506667 14.506667 14.506667zM287.9488 415.197867h71.099733c9.659733 0 14.506667-4.846933 14.506667-14.506667v-71.099733c0-9.659733-4.846933-14.506667-14.506667-14.506667H287.9488c-9.659733 0-14.506667 4.846933-14.506667 14.506667V400.725333c0 9.659733 4.846933 14.506667 14.506667 14.506667zM287.9488 121.4464h71.099733c9.659733 0 14.506667-4.846933 14.506667-14.506667V35.84c0-9.659733-4.846933-14.506667-14.506667-14.506667H287.9488c-9.659733 0-14.506667 4.846933-14.506667 14.506667v71.0656c0 9.693867 4.846933 14.506667 14.506667 14.506667zM430.865067 121.4464h71.0656c9.659733 0 14.506667-4.846933 14.506666-14.506667V35.84c0-9.659733-4.846933-14.506667-14.506666-14.506667h-71.0656c-9.693867 0-14.506667 4.846933-14.506667 14.506667v71.0656c0 9.693867 4.8128 14.506667 14.506667 14.506667zM573.0304 121.4464h71.0656c9.659733 0 14.506667-4.846933 14.506667-14.506667V35.84c0-9.659733-4.846933-14.506667-14.506667-14.506667h-71.0656c-9.693867 0-14.506667 4.846933-14.506667 14.506667v71.0656c0 9.693867 4.8128 14.506667 14.506667 14.506667zM430.865067 269.380267h71.0656c9.659733 0 14.506667-4.8128 14.506666-14.472534v-71.099733c0-9.659733-4.846933-14.506667-14.506666-14.506667h-71.0656c-9.693867 0-14.506667 4.846933-14.506667 14.506667v71.0656c0 9.693867 4.8128 14.506667 14.506667 14.506667z"  horiz-adv-x="1160" />

    
    <glyph glyph-name="matou" unicode="&#58964;" d="M298.8032-106.0864a31.744 31.744 0 0 0-29.4912 20.036267l-178.619733 451.584a31.675733 31.675733 0 0 0 19.114666 41.642666L580.949333 568.183467a31.573333 31.573333 0 0 0 41.915734-29.9008v-561.2544a31.675733 31.675733 0 0 0-63.351467 0v516.778666L161.792 357.922133l166.434133-420.6592a31.573333 31.573333 0 0 0-29.354666-43.349333z m579.242667-13.9264a31.607467 31.607467 0 0 0-29.354667 43.349333l171.997867 434.5856-397.7216 135.8848v-510.464a31.675733 31.675733 0 0 0-63.351467 0V538.146133a31.6416 31.6416 0 0 0 41.915733 29.9008l471.074134-161.006933c8.260267-2.7648 14.9504-8.874667 18.500266-16.725333 3.6864-7.850667 3.925333-16.827733 0.648534-24.917334l-184.32-465.373866a31.709867 31.709867 0 0 0-29.354667-20.036267z m32.324266-3.7888c-75.502933 0-137.216 17.339733-196.7104 34.065067-48.401067 13.550933-94.139733 26.487467-144.930133 29.3888-44.4416 2.525867-82.602667-7.714133-126.634667-19.490134-48.0256-12.936533-102.6048-27.511467-173.6704-26.7264-141.380267 1.6384-230.536533 91.579733-234.222933 95.368534a31.744 31.744 0 0 0 45.3632 44.3392c0.750933-0.785067 19.626667-19.524267 52.292267-38.126934 43.451733-24.849067 89.7024-37.614933 137.3184-38.263466 62.464-0.750933 110.318933 12.151467 156.5696 24.576 47.377067 12.663467 92.091733 24.712533 146.670933 21.640533 57.617067-3.2768 108.919467-17.7152 158.446933-31.5392 58.026667-16.315733 112.878933-31.6416 179.6096-31.6416 46.762667 0 89.565867 12.526933 127.044267 37.205333 10.410667 6.8608 19.012267 13.7216 25.6 19.797334a31.675733 31.675733 0 0 0 42.325333-47.104c-33.314133-30.3104-98.304-73.489067-195.072-73.489067z m19.8656 527.291733a31.675733 31.675733 0 0 0-31.6416 31.675734V673.928533H283.7504v-51.541333a31.675733 31.675733 0 0 0-63.351467 0V705.604267c0 17.476267 14.199467 31.675733 31.675734 31.675733h678.161066c17.476267 0 31.675733-14.199467 31.675734-31.675733V435.2a31.675733 31.675733 0 0 0-31.675734-31.675733z m-678.161066 0a31.675733 31.675733 0 0 0-31.675734 31.675734v54.715733a31.675733 31.675733 0 0 0 63.351467 0V435.2a31.675733 31.675733 0 0 0-31.675733-31.675733z m522.103466 270.4384a31.675733 31.675733 0 0 0-31.6416 31.675734V819.882667h-302.626133v-114.244267a31.675733 31.675733 0 0 0-63.317333 0V851.524267c0 17.476267 14.165333 31.675733 31.675733 31.675733h365.909333c17.5104 0 31.675733-14.199467 31.675734-31.675733v-145.92a31.607467 31.607467 0 0 0-31.675734-31.675734z"  horiz-adv-x="1126" />

    
    <glyph glyph-name="c-huoche" unicode="&#58965;" d="M1203.593846 743.739077h-291.524923a27.884308 27.884308 0 0 0-27.805538 27.805538v17.171693C884.263385 847.950769 836.214154 896 776.900923 896h-669.538461C48.049231 896 0 847.950769 0 788.716308v-619.126154c0-59.313231 48.049231-107.362462 107.283692-107.362462h26.466462a182.744615 182.744615 0 0 1 182.508308-182.508307 182.744615 182.744615 0 0 1 182.508307 182.508307h573.44a182.744615 182.744615 0 0 1 182.508308-182.508307 182.744615 182.744615 0 0 1 182.508308 182.508307h148.48a27.884308 27.884308 0 0 1 27.884307 27.805539V333.272615a27.884308 27.884308 0 0 1-8.11323 19.692308L1223.286154 735.389538a28.120615 28.120615 0 0 1-19.692308 8.349539z m-775.719384-681.747692c0-61.44-50.018462-111.379692-111.379693-111.379693-61.44 0-111.379692 49.939692-111.379692 111.379693 0 61.44 49.939692 111.379692 111.379692 111.379692 61.44 0 111.379692-50.018462 111.379693-111.379692z m938.692923 0c0-61.44-50.018462-111.379692-111.379693-111.379693-61.44 0-111.379692 49.939692-111.379692 111.379693 0 61.44 50.018462 111.379692 111.379692 111.379692 61.44 0 111.379692-50.018462 111.379693-111.379692z m113.033846 261.277538h-437.641846a27.884308 27.884308 0 0 0-27.805539 27.805539V641.890462c0 15.202462 12.366769 27.805538 27.805539 27.805538h146.589538c7.404308 0 14.572308-2.835692 19.771077-8.113231l290.737231-290.973538a27.884308 27.884308 0 0 0 8.113231-19.692308 27.569231 27.569231 0 0 0-27.569231-27.648z"  horiz-adv-x="1654" />

    
    <glyph glyph-name="dingdanzhongxin-jiantou" unicode="&#58966;" d="M317.659429-127.268571a63.853714 63.853714 0 0 0-48.493715 105.545142l347.867429 405.942858L269.165714 790.162286A63.853714 63.853714 0 1 0 366.153143 873.398857l383.634286-447.561143c20.553143-23.917714 20.553143-59.245714 0-83.236571l-383.634286-447.561143a63.707429 63.707429 0 0 0-48.493714-22.308571z"  horiz-adv-x="1024" />

    
    <glyph glyph-name="biaotoushezhi" unicode="&#58967;" d="M938.520217 895.825127H85.47905a80.18587 80.18587 0 0 1-85.304117-85.304117v-853.041167a80.18587 80.18587 0 0 1 85.304117-85.304117h853.041167a80.18587 80.18587 0 0 1 85.304116 85.304117V810.52101a80.18587 80.18587 0 0 1-85.304116 85.304117z m0-85.304117v-170.608233H426.695517V810.52101h511.8247zM85.47905-42.520157V554.60866h853.041167v-597.128817H85.47905z m725.084992 341.216467H511.999633a80.18587 80.18587 0 0 1-85.304116 85.304117H341.3914a80.18587 80.18587 0 0 1-85.304117-85.304117h-42.652058a42.652058 42.652058 0 1 1 0-85.304117H256.087283a80.18587 80.18587 0 0 1 85.304117-85.304116h85.304117a80.18587 80.18587 0 0 1 85.304116 85.304116h298.564409a42.652058 42.652058 0 1 1 0 85.304117zM426.695517 213.392193H341.3914V298.69631h85.304117v-85.304117z"  horiz-adv-x="1024" />

    
    <glyph glyph-name="quanxianshezhi" unicode="&#58968;" d="M429.632 176.64c0 1.152 0 0 1.152 0h164.16c1.152 0 1.152 1.152 1.152 0l-1.152-39.168v-1.152c0-1.152 1.152-1.152 0-1.152H428.48v1.152l1.152 39.168v1.152zM762.56 509.568c0 1.152 0 0 1.152 0h164.16c1.152 0 1.152 1.152 1.152 0l-1.152-39.168v-1.152c0-1.152 1.152-1.152 0-1.152h-166.464v1.152l1.152 39.168v1.152zM96.704 676.032c0 1.152 0 0 1.152 0h164.16c1.152 0 1.152 1.152 1.152 0l-1.152-39.168v-1.152c0-1.152 1.152-1.152 0-1.152H95.552v1.152l1.152 39.168v1.152zM804.032 883.968v-291.456h-40.32c-46.08 0-84.672-37.44-84.672-83.52l-1.152-39.168v-1.152c0-46.08 38.592-84.672 84.672-84.672h40.32l1.152-499.392h83.52L886.4 384h41.472c45.504 0 82.368 38.016 83.52 83.52v1.152l1.152 39.168v1.152c0 46.08-38.592 83.52-84.672 83.52h-40.32V883.968h-83.52z m-332.928 0v-624.384h-40.32c-46.08 0-84.672-37.44-84.672-83.52l-1.152-39.168v-1.152c0-46.08 38.592-84.672 84.672-84.672h40.32l1.152-166.464 83.52 1.152-1.152 165.312h41.472c45.504 0 82.368 38.016 83.52 83.52v1.152l1.152 39.168v1.152c0 46.08-38.592 83.52-84.672 83.52h-40.32V883.968h-83.52z m-332.928 0v-124.992h-40.32c-46.08 0-84.672-37.44-84.672-83.52L12.032 636.288v-1.152c0-46.08 38.592-84.672 84.672-84.672h40.32l1.152-665.856h83.52l-1.152 665.856h41.472c45.504 0 82.368 38.016 83.52 83.52v1.152l1.152 39.168v1.152c0 46.08-38.592 83.52-84.672 83.52h-40.32V883.968h-83.52z"  horiz-adv-x="1024" />

    
    </font>
</defs>
</svg>
